<?xml version="1.0" encoding="utf-8"?>
<!-- Generator: Adobe Illustrator 15.0.0, SVG Export Plug-In . SVG Version: 6.00 Build 0)  -->
<!DOCTYPE svg PUBLIC "-//W3C//DTD SVG 1.1//EN" "http://www.w3.org/Graphics/SVG/1.1/DTD/svg11.dtd">
<svg version="1.1" id="Layer_1" xmlns="http://www.w3.org/2000/svg" xmlns:xlink="http://www.w3.org/1999/xlink" x="0px" y="0px"
	 width="125px" height="125px" viewBox="0 0 125 125" enable-background="new 0 0 125 125" xml:space="preserve">
<title>ico-bank-rec-alt-lrg</title>
<desc>Created with Sketch.</desc>
<g>
	<path id="Stroke-5_1_" fill="#C3CCD1" d="M59.061,86.581v9.213c0,1.563-1.489,2.879-3.345,2.879H27.679
		c-0.359,0-0.65,0.291-0.65,0.649c0,0.359,0.291,0.65,0.65,0.65h28.037c2.539,0,4.645-1.86,4.645-4.179v-9.213
		c0-0.359-0.291-0.65-0.649-0.65C59.352,85.931,59.061,86.222,59.061,86.581L59.061,86.581z"/>
	<path id="Stroke-7_1_" fill="#C3CCD1" d="M27.678,25.629h28.037c1.855,0,3.346,1.316,3.346,2.878v9.214
		c0,0.359,0.291,0.65,0.649,0.65c0.359,0,0.65-0.291,0.65-0.65v-9.214c0-2.319-2.105-4.178-4.646-4.178H27.678
		c-0.358,0-0.649,0.291-0.649,0.65S27.32,25.629,27.678,25.629L27.678,25.629z"/>
	<path id="Stroke-9_1_" fill="#C3CCD1" d="M27.678,42.858h12.284c0.359,0,0.65-0.291,0.65-0.65s-0.291-0.65-0.65-0.65H27.678
		c-0.358,0-0.649,0.291-0.649,0.65S27.32,42.858,27.678,42.858L27.678,42.858z"/>
	<path id="Stroke-11_1_" fill="#C3CCD1" d="M27.678,82.743h12.284c0.359,0,0.65-0.291,0.65-0.649s-0.291-0.649-0.65-0.649H27.678
		c-0.358,0-0.649,0.291-0.649,0.649S27.32,82.743,27.678,82.743L27.678,82.743z"/>
	<path id="Stroke-13_1_" fill="#C3CCD1" d="M27.678,69.448h12.284c0.359,0,0.65-0.291,0.65-0.65c0-0.358-0.291-0.649-0.65-0.649
		H27.678c-0.358,0-0.649,0.291-0.649,0.649C27.029,69.157,27.32,69.448,27.678,69.448L27.678,69.448z"/>
	<path id="Stroke-15_1_" fill="#C3CCD1" d="M27.678,56.153h12.284c0.359,0,0.65-0.291,0.65-0.649c0-0.359-0.291-0.65-0.65-0.65
		H27.678c-0.358,0-0.649,0.291-0.649,0.65C27.029,55.862,27.32,56.153,27.678,56.153L27.678,56.153z"/>
	<g>
		<g>
			<g>
				<path fill="#F9A233" d="M98.182,99.973H70.145c-2.563,0-4.646-1.875-4.646-4.179V28.507c0-2.303,2.084-4.177,4.646-4.177h28.037
					c0.359,0,0.65,0.291,0.65,0.65s-0.291,0.65-0.65,0.65H70.145c-1.846,0-3.346,1.291-3.346,2.877v67.287
					c0,1.587,1.5,2.878,3.346,2.878h28.037c0.359,0,0.65,0.291,0.65,0.65S98.541,99.973,98.182,99.973z"/>
			</g>
			<path fill="#F9A233" d="M85.898,42.858h12.283c0.359,0,0.65-0.291,0.65-0.65s-0.291-0.65-0.65-0.65H85.898
				c-0.359,0-0.65,0.291-0.65,0.65S85.539,42.858,85.898,42.858L85.898,42.858z"/>
			<path fill="#F9A233" d="M85.898,82.743h12.283c0.359,0,0.65-0.291,0.65-0.649s-0.291-0.649-0.65-0.649H85.898
				c-0.359,0-0.65,0.291-0.65,0.649S85.539,82.743,85.898,82.743L85.898,82.743z"/>
			<path fill="#F9A233" d="M85.898,69.448h12.283c0.359,0,0.65-0.291,0.65-0.65c0-0.358-0.291-0.649-0.65-0.649H85.898
				c-0.359,0-0.65,0.291-0.65,0.649C85.248,69.157,85.539,69.448,85.898,69.448L85.898,69.448z"/>
			<path fill="#F9A233" d="M85.898,56.153h12.283c0.359,0,0.65-0.291,0.65-0.649c0-0.359-0.291-0.65-0.65-0.65H85.898
				c-0.359,0-0.65,0.291-0.65,0.65C85.248,55.862,85.539,56.153,85.898,56.153L85.898,56.153z"/>
		</g>
	</g>
	<path id="Fill-25_1_" fill="#FFFFFF" d="M75.799,78.251H50.06c-1.805,0-3.268-1.459-3.268-3.26V49.311c0-1.8,1.463-3.26,3.268-3.26
		h25.739c1.805,0,3.27,1.459,3.27,3.26v25.681C79.068,76.792,77.604,78.251,75.799,78.251"/>
	<g>
		<path fill="#F9A233" d="M75.799,45.4H50.06c-2.164,0-3.918,1.75-3.918,3.91v25.681c0,2.16,1.754,3.91,3.918,3.91h25.739
			c2.164,0,3.918-1.75,3.918-3.91V49.311C79.717,47.151,77.963,45.4,75.799,45.4z M78.418,74.991c0,1.441-1.172,2.61-2.619,2.61
			H50.06c-1.447,0-2.618-1.169-2.618-2.61V49.311c0-1.441,1.171-2.61,2.618-2.61h25.739c1.447,0,2.619,1.169,2.619,2.61V74.991z"/>
		<path fill="#F9A233" d="M72.506,61.617l-1.738,1.562v-1.027c0-4.294-3.488-7.774-7.79-7.774c-2.107,0-4.085,0.84-5.538,2.305
			c-0.253,0.256-0.251,0.667,0.004,0.92c0.255,0.252,0.667,0.251,0.919-0.004c1.212-1.222,2.857-1.922,4.615-1.922
			c3.584,0,6.491,2.9,6.491,6.476v1.027l-1.736-1.562c-0.268-0.24-0.68-0.218-0.918,0.049c-0.24,0.268-0.219,0.678,0.049,0.918
			l2.82,2.536c0.029,0.025,0.064,0.038,0.096,0.058c0.033,0.021,0.063,0.046,0.1,0.062c0.066,0.025,0.135,0.037,0.205,0.041
			c0.012,0,0.023,0.007,0.035,0.007c0.014,0,0.023-0.007,0.037-0.008c0.068-0.004,0.137-0.015,0.201-0.04
			c0.037-0.016,0.066-0.04,0.102-0.062c0.031-0.02,0.064-0.032,0.094-0.058l2.822-2.536c0.268-0.24,0.289-0.65,0.049-0.918
			C73.184,61.399,72.773,61.377,72.506,61.617z"/>
		<path fill="#F9A233" d="M67.496,66.705c-1.211,1.221-2.857,1.921-4.614,1.921c-3.586,0-6.491-2.899-6.491-6.475v-1.026
			l1.737,1.561c0.267,0.24,0.678,0.218,0.918-0.049c0.239-0.268,0.217-0.678-0.049-0.918l-2.822-2.536
			c-0.028-0.025-0.063-0.037-0.094-0.057c-0.033-0.021-0.064-0.048-0.102-0.062c-0.064-0.025-0.131-0.037-0.199-0.041
			c-0.014,0-0.025-0.008-0.039-0.008c-0.012,0-0.021,0.006-0.031,0.006c-0.071,0.004-0.143,0.016-0.209,0.043
			c-0.034,0.014-0.061,0.037-0.092,0.056c-0.035,0.021-0.072,0.034-0.104,0.063l-2.821,2.536c-0.267,0.24-0.289,0.65-0.049,0.918
			c0.239,0.267,0.651,0.289,0.918,0.049l1.737-1.562v1.027c0,4.294,3.488,7.774,7.791,7.774c2.108,0,4.084-0.841,5.538-2.306
			c0.252-0.254,0.25-0.665-0.004-0.919C68.16,66.449,67.75,66.451,67.496,66.705z"/>
	</g>
</g>
</svg>
