<?xml version="1.0" encoding="utf-8"?>
<!-- Generator: Adobe Illustrator 15.0.0, SVG Export Plug-In . SVG Version: 6.00 Build 0)  -->
<!DOCTYPE svg PUBLIC "-//W3C//DTD SVG 1.1//EN" "http://www.w3.org/Graphics/SVG/1.1/DTD/svg11.dtd">
<svg version="1.1" id="Layer_1" xmlns="http://www.w3.org/2000/svg" xmlns:xlink="http://www.w3.org/1999/xlink" x="0px" y="0px"
	 width="125px" height="125px" viewBox="0 0 125 125" enable-background="new 0 0 125 125" xml:space="preserve">
<title>ico-authenticated-users-lrg</title>
<desc>Created with Sketch.</desc>
<g>
	<path id="Stroke-1_1_" fill="#C3CCD1" d="M76.046,62.99c8.349-5.475,12.757-15.328,10.941-25.562
		c-1.769-9.978-9.706-18.073-19.631-20.003c-15.798-3.074-30.089,8.842-30.089,24.589c0,8.554,4.321,16.368,11.349,20.976
		l0.161-1.162c-13.569,4.287-22.49,12.795-26.275,24.899c-1.961,6.269,2.89,12.675,9.51,12.675H92.65
		c6.621,0,11.471-6.406,9.51-12.675c-3.785-12.104-12.706-20.613-26.275-24.899L76.046,62.99L76.046,62.99z M75.333,61.905
		c-0.458,0.3-0.362,0.998,0.161,1.164c13.174,4.161,21.77,12.361,25.426,24.047c1.695,5.422-2.518,10.987-8.27,10.987H32.012
		c-5.752,0-9.965-5.565-8.27-10.987C27.397,75.43,35.994,67.23,49.168,63.068c0.523-0.166,0.619-0.864,0.161-1.164
		c-6.665-4.372-10.763-11.78-10.763-19.891c0-14.933,13.551-26.229,28.542-23.313c9.396,1.828,16.923,9.505,18.599,18.955
		C87.432,47.37,83.253,56.709,75.333,61.905L75.333,61.905z"/>
	<rect x="48.688" y="96.138" fill="#FFFFFF" width="27.25" height="6.167"/>
	<linearGradient id="Fill-3_2_" gradientUnits="userSpaceOnUse" x1="48.9141" y1="107.1309" x2="76.4137" y2="86.6312">
		<stop  offset="0" style="stop-color:#ED334D"/>
		<stop  offset="1" style="stop-color:#F9A233"/>
	</linearGradient>
	<path id="Fill-3_1_" opacity="0.2" fill="url(#Fill-3_2_)" d="M48.727,105.492V88.768c0-1.539,1.258-2.797,2.794-2.797h21.62
		c1.537,0,2.795,1.258,2.795,2.797v16.725c0,1.538-1.258,2.797-2.795,2.797h-21.62C49.984,108.289,48.727,107.03,48.727,105.492"/>
	<path id="Stroke-5_2_" fill="#F9A233" d="M49.376,105.492V88.768c0-1.18,0.967-2.146,2.145-2.146h21.62
		c1.178,0,2.145,0.967,2.145,2.146v16.725c0,1.179-0.967,2.146-2.145,2.146h-21.62C50.343,107.639,49.376,106.671,49.376,105.492
		L49.376,105.492z M48.076,105.492c0,1.896,1.549,3.446,3.444,3.446h21.62c1.896,0,3.445-1.55,3.445-3.446V88.768
		c0-1.897-1.549-3.447-3.445-3.447h-21.62c-1.896,0-3.444,1.55-3.444,3.447V105.492L48.076,105.492z"/>
	<path id="Stroke-7_1_" fill="#F9A233" d="M54.106,86.009v-7.415c0-4.545,3.683-8.23,8.226-8.23c4.541,0,8.223,3.686,8.223,8.23
		v7.415c0,0.358,0.291,0.649,0.65,0.649s0.65-0.291,0.65-0.649v-7.415c0-5.263-4.264-9.529-9.523-9.529
		c-5.262,0-9.525,4.266-9.525,9.529v7.415c0,0.358,0.291,0.649,0.65,0.649C53.815,86.658,54.106,86.367,54.106,86.009L54.106,86.009
		z"/>
	<path id="Stroke-9_2_" fill="#F9A233" d="M66.483,97.129c0,2.296-1.858,4.156-4.152,4.156c-2.293,0-4.153-1.86-4.153-4.156
		c0-2.295,1.86-4.155,4.153-4.155C64.625,92.974,66.483,94.834,66.483,97.129L66.483,97.129z M67.983,97.129
		c0-3.123-2.53-5.655-5.652-5.655s-5.653,2.532-5.653,5.655c0,3.124,2.531,5.656,5.653,5.656S67.983,100.254,67.983,97.129
		L67.983,97.129z"/>
</g>
</svg>
