<?xml version="1.0" encoding="utf-8"?>
<!-- Generator: Adobe Illustrator 15.0.0, SVG Export Plug-In . SVG Version: 6.00 Build 0)  -->
<!DOCTYPE svg PUBLIC "-//W3C//DTD SVG 1.1//EN" "http://www.w3.org/Graphics/SVG/1.1/DTD/svg11.dtd">
<svg version="1.1" id="Layer_1" xmlns="http://www.w3.org/2000/svg" xmlns:xlink="http://www.w3.org/1999/xlink" x="0px" y="0px"
	 width="125px" height="125px" viewBox="0 0 125 125" enable-background="new 0 0 125 125" xml:space="preserve">
<title>ico-dashboard-alt-lrg</title>
<desc>Created with Sketch.</desc>
<g>
	<path id="Stroke-1_1_" fill="#C3CCD1" d="M92.046,99.746H13.61c-1.844,0-3.355-1.506-3.355-3.344V28.66
		c0-1.838,1.512-3.345,3.355-3.345h98.01c1.846,0,3.355,1.507,3.355,3.345v17.137v50.547c0,1.844-1.496,3.342-3.348,3.348
		l-19.584,0.055H92.046z M92.048,101.047l19.584-0.057c2.566-0.006,4.645-2.084,4.645-4.646V45.796V28.66
		c0-2.557-2.094-4.645-4.656-4.645H13.61c-2.563,0-4.656,2.088-4.656,4.645v67.743c0,2.557,2.094,4.645,4.656,4.645h78.436H92.048z"
		/>
	<linearGradient id="Fill-3_2_" gradientUnits="userSpaceOnUse" x1="21.6514" y1="68.2402" x2="90.4044" y2="38.4889">
		<stop  offset="0" style="stop-color:#ED334D"/>
		<stop  offset="1" style="stop-color:#F9A233"/>
	</linearGradient>
	<path id="Fill-3_1_" opacity="0.2" fill="url(#Fill-3_2_)" d="M55.632,65.695H30.103c-1.82,0-3.309-1.484-3.309-3.299v-6.673
		c0-1.813,1.488-3.298,3.309-3.298h25.529c1.818,0,3.309,1.484,3.309,3.298v6.673C58.94,64.211,57.45,65.695,55.632,65.695"/>
	<path id="Stroke-5_1_" fill="#F9A233" d="M55.632,65.045H30.103c-1.461,0-2.658-1.193-2.658-2.649v-6.673
		c0-1.454,1.197-2.648,2.658-2.648h25.529c1.461,0,2.658,1.194,2.658,2.648v6.673C58.29,63.852,57.093,65.045,55.632,65.045
		L55.632,65.045z M55.632,66.344c2.178,0,3.957-1.773,3.957-3.948v-6.673c0-2.173-1.779-3.948-3.957-3.948H30.103
		c-2.178,0-3.959,1.775-3.959,3.948v6.673c0,2.174,1.781,3.948,3.959,3.948H55.632L55.632,66.344z"/>
	<linearGradient id="Fill-7_2_" gradientUnits="userSpaceOnUse" x1="27.6914" y1="82.1963" x2="96.4414" y2="52.4463">
		<stop  offset="0" style="stop-color:#ED334D"/>
		<stop  offset="1" style="stop-color:#F9A233"/>
	</linearGradient>
	<path id="Fill-7_1_" opacity="0.2" fill="url(#Fill-7_2_)" d="M93.923,65.695H68.394c-1.818,0-3.309-1.484-3.309-3.299v-6.673
		c0-1.813,1.49-3.298,3.309-3.298h25.529c1.82,0,3.309,1.484,3.309,3.298v6.673C97.231,64.211,95.743,65.695,93.923,65.695"/>
	<path id="Stroke-9_1_" fill="#F9A233" d="M93.923,65.045H68.394c-1.461,0-2.658-1.193-2.658-2.649v-6.673
		c0-1.454,1.197-2.648,2.658-2.648h25.529c1.461,0,2.658,1.194,2.658,2.648v6.673C96.581,63.852,95.384,65.045,93.923,65.045
		L93.923,65.045z M93.923,66.344c2.178,0,3.959-1.773,3.959-3.948v-6.673c0-2.173-1.781-3.948-3.959-3.948H68.394
		c-2.178,0-3.957,1.775-3.957,3.948v6.673c0,2.174,1.779,3.948,3.957,3.948H93.923L93.923,66.344z"/>
	<linearGradient id="Fill-11_2_" gradientUnits="userSpaceOnUse" x1="28.6099" y1="84.3184" x2="97.3609" y2="54.5679">
		<stop  offset="0" style="stop-color:#ED334D"/>
		<stop  offset="1" style="stop-color:#F9A233"/>
	</linearGradient>
	<path id="Fill-11_1_" opacity="0.2" fill="url(#Fill-11_2_)" d="M55.632,84.783H30.103c-1.82,0-3.309-1.484-3.309-3.299v-6.672
		c0-1.814,1.488-3.299,3.309-3.299h25.529c1.818,0,3.309,1.484,3.309,3.299v6.672C58.94,83.299,57.45,84.783,55.632,84.783"/>
	<path id="Stroke-13_1_" fill="#F9A233" d="M55.632,84.135H30.103c-1.461,0-2.658-1.195-2.658-2.65v-6.672
		c0-1.455,1.197-2.648,2.658-2.648h25.529c1.461,0,2.658,1.193,2.658,2.648v6.672C58.29,82.939,57.093,84.135,55.632,84.135
		L55.632,84.135z M55.632,85.434c2.178,0,3.957-1.775,3.957-3.949v-6.672c0-2.174-1.779-3.949-3.957-3.949H30.103
		c-2.178,0-3.959,1.775-3.959,3.949v6.672c0,2.174,1.781,3.949,3.959,3.949H55.632L55.632,85.434z"/>
	<linearGradient id="Fill-15_2_" gradientUnits="userSpaceOnUse" x1="34.6494" y1="98.2744" x2="103.3994" y2="68.5244">
		<stop  offset="0" style="stop-color:#ED334D"/>
		<stop  offset="1" style="stop-color:#F9A233"/>
	</linearGradient>
	<path id="Fill-15_1_" opacity="0.2" fill="url(#Fill-15_2_)" d="M93.923,84.783H68.394c-1.818,0-3.309-1.484-3.309-3.299v-6.672
		c0-1.814,1.49-3.299,3.309-3.299h25.529c1.82,0,3.309,1.484,3.309,3.299v6.672C97.231,83.299,95.743,84.783,93.923,84.783"/>
	<path id="Stroke-17_1_" fill="#F9A233" d="M93.923,84.135H68.394c-1.461,0-2.658-1.195-2.658-2.65v-6.672
		c0-1.455,1.197-2.648,2.658-2.648h25.529c1.461,0,2.658,1.193,2.658,2.648v6.672C96.581,82.939,95.384,84.135,93.923,84.135
		L93.923,84.135z M93.923,85.434c2.178,0,3.959-1.775,3.959-3.949v-6.672c0-2.174-1.781-3.949-3.959-3.949H68.394
		c-2.178,0-3.957,1.775-3.957,3.949v6.672c0,2.174,1.779,3.949,3.957,3.949H93.923L93.923,85.434z"/>
	<path id="Stroke-19_1_" fill="#C3CCD1" d="M111.62,24.015H13.61c-2.563,0-4.656,2.088-4.656,4.645v9.965
		c0,0.359,0.291,0.65,0.65,0.65h7.066c0.359,0,0.65-0.291,0.65-0.65v-4.916c0-0.744,0.605-1.347,1.352-1.347h17.111
		c0.746,0,1.352,0.604,1.352,1.347v4.916c0,0.359,0.291,0.65,0.65,0.65h77.84c0.359,0,0.65-0.291,0.65-0.65v-9.965
		C116.276,26.103,114.183,24.015,111.62,24.015L111.62,24.015z M111.62,25.314c1.846,0,3.357,1.507,3.357,3.345v9.965l0.648-0.65
		h-77.84l0.65,0.65v-4.916c0-1.462-1.188-2.647-2.652-2.647H18.673c-1.465,0-2.652,1.185-2.652,2.647v4.916l0.65-0.65H9.604
		l0.648,0.65v-9.965c0-1.837,1.512-3.345,3.357-3.345H111.62L111.62,25.314z"/>
</g>
</svg>
