<?xml version="1.0" encoding="utf-8"?>
<!-- Generator: Adobe Illustrator 17.0.0, SVG Export Plug-In . SVG Version: 6.00 Build 0)  -->
<!DOCTYPE svg PUBLIC "-//W3C//DTD SVG 1.1//EN" "http://www.w3.org/Graphics/SVG/1.1/DTD/svg11.dtd">
<svg version="1.1" id="Layer_1" xmlns="http://www.w3.org/2000/svg" xmlns:xlink="http://www.w3.org/1999/xlink" x="0px" y="0px"
	 width="400px" height="400px" viewBox="0 0 400 400" enable-background="new 0 0 400 400" xml:space="preserve">
<g>
	
		<line fill="none" stroke="#E93950" stroke-width="5" stroke-miterlimit="10" x1="254.387" y1="171.973" x2="266.892" y2="171.973"/>
	<line fill="none" stroke="#F79E35" stroke-width="5" stroke-miterlimit="10" x1="85" y1="200.6" x2="219.141" y2="200.6"/>
	<path fill="none" stroke="#F79E35" stroke-width="5" stroke-miterlimit="10" d="M131.551,288.05c0,1.015-0.823,1.838-1.838,1.838
		H112.41c-1.015,0-1.838-0.823-1.838-1.838v-17.304c0-1.015,0.823-1.838,1.838-1.838h17.304c1.015,0,1.838,0.823,1.838,1.838V288.05
		z"/>
	<path fill="none" stroke="#F79E35" stroke-width="5" stroke-miterlimit="10" d="M166.312,288.05c0,1.015-0.823,1.838-1.838,1.838
		H147.17c-1.015,0-1.838-0.823-1.838-1.838v-17.304c0-1.015,0.823-1.838,1.838-1.838h17.304c1.015,0,1.838,0.823,1.838,1.838V288.05
		z"/>
	<path fill="none" stroke="#F79E35" stroke-width="5" stroke-miterlimit="10" d="M200,315V115.32C200,98.574,213.574,85,230.319,85
		l0,0c16.745,0,30.319,13.574,30.319,30.319v56.928"/>
	
		<line fill="none" stroke="#E93950" stroke-width="5" stroke-miterlimit="10" x1="249.078" y1="209.417" x2="270.899" y2="209.417"/>
	
		<line fill="none" stroke="#E93950" stroke-width="5" stroke-miterlimit="10" x1="249.078" y1="225.037" x2="270.899" y2="225.037"/>
	<path fill="none" stroke="#E93950" stroke-width="5" stroke-miterlimit="10" d="M230.932,170.829v79.474
		c0,2.537,2.057,4.594,4.594,4.594h50.227c2.537,0,4.594-2.057,4.594-4.594v-79.474l-29.707-22.28L230.932,170.829z"/>
	<path fill="none" stroke="#E93950" stroke-width="5" stroke-miterlimit="10" d="M276.181,130.939h32.387
		c3.552,0,6.432,2.879,6.432,6.432v171.199c0,3.552-2.879,6.432-6.432,6.432H91.432C87.879,315,85,312.121,85,308.569V137.371
		c0-3.552,2.879-6.432,6.432-6.432h153.052"/>
</g>
<circle fill="none" stroke="#666666" stroke-width="5" stroke-miterlimit="10" cx="200" cy="200" r="190"/>
</svg>
