<?xml version="1.0" encoding="utf-8"?>
<!-- Generator: Adobe Illustrator 15.0.0, SVG Export Plug-In . SVG Version: 6.00 Build 0)  -->
<!DOCTYPE svg PUBLIC "-//W3C//DTD SVG 1.1//EN" "http://www.w3.org/Graphics/SVG/1.1/DTD/svg11.dtd">
<svg version="1.1" id="Layer_1" xmlns="http://www.w3.org/2000/svg" xmlns:xlink="http://www.w3.org/1999/xlink" x="0px" y="0px"
	 width="397px" height="226px" viewBox="0 0 397 226" enable-background="new 0 0 397 226" xml:space="preserve">
<title>Artboard</title>
<desc>Created with Sketch.</desc>
<path id="Mask" fill="#D4DAE0" d="M93.003,225.021h294.999V14.023c0-3.317-2.683-6.001-5.992-6.001H98.995
	c-3.307,0-5.992,2.687-5.992,6.001V225.021z M92.003,14.023c0-3.865,3.132-7.001,6.992-7.001H382.01
	c3.862,0,6.992,3.133,6.992,7.001v210.998v1h-1H93.003h-1v-1V14.023z"/>
<path id="Invoice" fill="#7E90A2" d="M129.752,47.354h-1.664v9.824h1.664V47.354z M132.142,57.178h1.6v-4.672
	c0.176-0.704,0.8-1.136,1.488-1.136c0.912,0,1.344,0.576,1.344,1.456v4.352h1.601v-4.624c0-1.568-0.896-2.64-2.513-2.64
	c-0.832,0-1.536,0.384-1.92,0.832v-0.672h-1.6V57.178z M143.923,57.178l2.704-7.104h-1.664l-1.824,5.2l-1.84-5.2h-1.712l2.688,7.104
	H143.923z M154.313,53.626c0-2.176-1.376-3.712-3.376-3.712s-3.376,1.536-3.376,3.712c0,2.176,1.376,3.712,3.376,3.712
	S154.313,55.802,154.313,53.626L154.313,53.626z M152.713,53.626c0,1.344-0.624,2.336-1.776,2.336c-1.151,0-1.775-0.992-1.775-2.336
	c0-1.344,0.624-2.336,1.775-2.336C152.089,51.291,152.713,52.282,152.713,53.626L152.713,53.626z M157.711,50.074h-1.601v7.104
	h1.601V50.074z M157.903,47.931c0-0.544-0.464-0.976-0.992-0.976c-0.527,0-0.992,0.432-0.992,0.976c0,0.544,0.465,0.976,0.992,0.976
	C157.439,48.906,157.903,48.475,157.903,47.931L157.903,47.931z M159.508,53.626c0,2.208,1.393,3.712,3.313,3.712
	c1.696,0,2.768-0.96,2.976-2.384h-1.6c-0.128,0.64-0.656,0.992-1.36,0.992c-1.072,0-1.728-0.976-1.728-2.32
	c0-1.344,0.655-2.32,1.728-2.32c0.704,0,1.232,0.352,1.36,0.992h1.6c-0.208-1.424-1.279-2.384-2.976-2.384
	C160.901,49.915,159.508,51.418,159.508,53.626L159.508,53.626z M171.914,54.97c-0.176,0.688-0.752,1.024-1.521,1.024
	c-1.023,0-1.744-0.752-1.792-2h4.849v-0.576c0-2.08-1.089-3.504-3.089-3.504c-1.936,0-3.327,1.6-3.327,3.728
	c0,2.192,1.376,3.696,3.359,3.696c1.712,0,2.752-0.96,2.992-2.368H171.914z M170.378,51.258c0.976,0,1.472,0.704,1.488,1.568h-3.217
	C168.842,51.802,169.498,51.258,170.378,51.258L170.378,51.258z"/>
<path id="To-Ridgeway-School" fill="#7E90A2" d="M135.907,93.286h2.083v5.33h1.063v-5.33h2.083v-0.939h-5.229V93.286z
	 M146.068,96.35c0-1.389-0.878-2.369-2.154-2.369s-2.154,0.98-2.154,2.369s0.878,2.369,2.154,2.369S146.068,97.738,146.068,96.35
	L146.068,96.35z M145.046,96.35c0,0.857-0.397,1.491-1.133,1.491s-1.134-0.633-1.134-1.491c0-0.858,0.398-1.491,1.134-1.491
	S145.046,95.492,145.046,96.35L145.046,96.35z M151.153,96.074l1.746,2.542h1.205l-1.817-2.583c0.99-0.153,1.603-0.756,1.603-1.808
	c0-1.226-0.837-1.879-2.134-1.879h-2.42v6.27h1.062v-2.542H151.153z M150.397,93.266h1.338c0.705,0,1.104,0.378,1.104,0.96
	s-0.398,0.96-1.104,0.96h-1.338V93.266z M155.962,94.083h-1.021v4.534h1.021V94.083z M156.085,92.714
	c0-0.347-0.297-0.623-0.634-0.623s-0.633,0.276-0.633,0.623s0.296,0.623,0.633,0.623S156.085,93.062,156.085,92.714L156.085,92.714z
	 M160.169,98.616h1.021v-6.637h-1.021v2.492c-0.204-0.255-0.653-0.49-1.154-0.49c-1.327,0-2.103,1.072-2.103,2.369
	c0,1.307,0.775,2.369,2.103,2.369c0.501,0,0.95-0.235,1.154-0.49V98.616z M160.169,97.207c-0.174,0.357-0.562,0.603-0.98,0.603
	c-0.786,0-1.256-0.623-1.256-1.46c0-0.837,0.47-1.46,1.256-1.46c0.419,0,0.807,0.245,0.98,0.603V97.207z M165.398,98.31
	c0,0.848-0.357,1.307-1.113,1.307c-0.562,0-0.919-0.255-1.021-0.756h-0.99c0.112,0.991,0.857,1.593,2.012,1.593
	c1.205,0,2.134-0.684,2.134-2.216v-4.156h-1.021v0.368c-0.205-0.245-0.644-0.47-1.154-0.47c-1.338,0-2.104,1.103-2.104,2.297
	c0,1.195,0.766,2.298,2.104,2.298c0.511,0,0.949-0.225,1.154-0.47V98.31z M165.398,97.136c-0.174,0.306-0.552,0.541-0.98,0.541
	c-0.786,0-1.235-0.592-1.235-1.399s0.449-1.399,1.235-1.399c0.429,0,0.807,0.235,0.98,0.542V97.136z M170.483,97.207
	c-0.112,0.439-0.48,0.654-0.971,0.654c-0.653,0-1.112-0.48-1.144-1.276h3.095v-0.368c0-1.328-0.694-2.236-1.971-2.236
	c-1.236,0-2.124,1.021-2.124,2.379c0,1.399,0.878,2.358,2.144,2.358c1.093,0,1.757-0.612,1.91-1.511H170.483z M169.502,94.838
	c0.623,0,0.939,0.449,0.949,1H168.4C168.522,95.186,168.941,94.838,169.502,94.838L169.502,94.838z M175.577,94.083h-0.929
	l-0.797,3.217l-0.878-3.217h-1.021l1.317,4.534h1.021l0.807-3.155l0.807,3.155h1.021l1.316-4.534h-0.99l-0.878,3.217L175.577,94.083
	z M182.552,98.616v-2.971c0-1.031-0.674-1.665-1.817-1.665c-0.93,0-1.645,0.582-1.777,1.358h0.98c0.112-0.316,0.368-0.49,0.776-0.49
	c0.582,0,0.868,0.357,0.868,0.817v0.368c-0.185-0.133-0.644-0.276-1.052-0.276c-1.001,0-1.767,0.603-1.767,1.46
	c0,0.929,0.766,1.481,1.694,1.481c0.511,0,0.971-0.184,1.124-0.337v0.255H182.552z M181.582,97.412
	c-0.112,0.286-0.521,0.459-0.93,0.459c-0.459,0-0.939-0.194-0.939-0.654c0-0.449,0.48-0.643,0.939-0.643
	c0.408,0,0.817,0.173,0.93,0.459V97.412z M185.411,100.352l2.389-6.27h-1.052l-1.164,3.339l-1.184-3.339h-1.093l1.756,4.656
	l-0.644,1.613H185.411z M190.446,96.88c0.225,1.164,1.174,1.838,2.501,1.838c1.297,0,2.236-0.725,2.236-1.899
	c0-0.939-0.644-1.511-1.623-1.736l-1.093-0.255c-0.562-0.133-0.827-0.398-0.827-0.817c0-0.521,0.459-0.868,1.134-0.868
	c0.745,0,1.144,0.368,1.307,0.837h1.062c-0.225-1.042-1.021-1.736-2.379-1.736c-1.266,0-2.134,0.796-2.134,1.858
	c0,1.011,0.694,1.48,1.563,1.685l1.062,0.255c0.653,0.153,0.909,0.409,0.909,0.848c0,0.582-0.48,0.929-1.216,0.929
	c-0.684,0-1.215-0.296-1.419-0.939H190.446z M195.857,96.35c0,1.409,0.889,2.369,2.114,2.369c1.082,0,1.767-0.612,1.899-1.521
	h-1.021c-0.082,0.408-0.419,0.633-0.868,0.633c-0.684,0-1.103-0.623-1.103-1.48c0-0.858,0.419-1.48,1.103-1.48
	c0.449,0,0.786,0.225,0.868,0.633h1.021c-0.133-0.909-0.817-1.521-1.899-1.521C196.745,93.98,195.857,94.94,195.857,96.35
	L195.857,96.35z M200.779,98.616h1.021v-2.981c0.112-0.449,0.511-0.725,0.949-0.725c0.582,0,0.858,0.368,0.858,0.929v2.777h1.021
	v-2.951c0-1.001-0.571-1.685-1.603-1.685c-0.531,0-0.98,0.245-1.226,0.531v-2.533h-1.021V98.616z M209.825,96.35
	c0-1.389-0.878-2.369-2.154-2.369s-2.154,0.98-2.154,2.369s0.878,2.369,2.154,2.369S209.825,97.738,209.825,96.35L209.825,96.35z
	 M208.805,96.35c0,0.857-0.398,1.491-1.134,1.491s-1.134-0.633-1.134-1.491c0-0.858,0.398-1.491,1.134-1.491
	S208.805,95.492,208.805,96.35L208.805,96.35z M214.768,96.35c0-1.389-0.878-2.369-2.154-2.369s-2.154,0.98-2.154,2.369
	s0.878,2.369,2.154,2.369S214.768,97.738,214.768,96.35L214.768,96.35z M213.747,96.35c0,0.857-0.398,1.491-1.134,1.491
	s-1.134-0.633-1.134-1.491c0-0.858,0.398-1.491,1.134-1.491S213.747,95.492,213.747,96.35L213.747,96.35z M216.739,91.979h-1.021
	v6.637h1.021V91.979z"/>
<path id="Invoice-number-755" fill="#7E90A2" d="M128.72,113.039h-1.04v6.139h1.04V113.039z M130.213,119.178h1v-2.92
	c0.11-0.439,0.5-0.709,0.931-0.709c0.569,0,0.84,0.359,0.84,0.91v2.719h1v-2.889c0-0.98-0.561-1.65-1.57-1.65
	c-0.52,0-0.96,0.24-1.2,0.52v-0.42h-1V119.178z M137.577,119.178l1.689-4.439h-1.04l-1.14,3.25l-1.15-3.25h-1.069l1.68,4.439
	H137.577z M144.071,116.959c0-1.36-0.86-2.32-2.11-2.32s-2.109,0.96-2.109,2.32c0,1.359,0.859,2.319,2.109,2.319
	S144.071,118.318,144.071,116.959L144.071,116.959z M143.071,116.959c0,0.84-0.39,1.459-1.11,1.459c-0.72,0-1.109-0.619-1.109-1.459
	c0-0.841,0.39-1.461,1.109-1.461C142.681,115.498,143.071,116.118,143.071,116.959L143.071,116.959z M146.195,114.738h-1v4.439h1
	V114.738z M146.314,113.398c0-0.34-0.289-0.61-0.619-0.61s-0.62,0.27-0.62,0.61s0.29,0.609,0.62,0.609
	S146.314,113.738,146.314,113.398L146.314,113.398z M147.318,116.959c0,1.379,0.87,2.319,2.07,2.319c1.06,0,1.729-0.601,1.859-1.489
	h-1c-0.079,0.399-0.409,0.619-0.85,0.619c-0.67,0-1.08-0.609-1.08-1.449c0-0.841,0.41-1.451,1.08-1.451
	c0.44,0,0.771,0.221,0.85,0.621h1c-0.13-0.891-0.8-1.49-1.859-1.49C148.188,114.639,147.318,115.578,147.318,116.959
	L147.318,116.959z M155.072,117.799c-0.11,0.43-0.471,0.64-0.95,0.64c-0.64,0-1.09-0.47-1.12-1.25h3.03v-0.36
	c0-1.3-0.681-2.189-1.931-2.189c-1.21,0-2.079,1-2.079,2.33c0,1.369,0.859,2.31,2.1,2.31c1.07,0,1.72-0.601,1.87-1.479H155.072z
	 M154.112,115.479c0.609,0,0.92,0.439,0.93,0.98h-2.01C153.152,115.818,153.562,115.479,154.112,115.479L154.112,115.479z
	 M159.548,119.178h1v-2.92c0.11-0.439,0.5-0.709,0.931-0.709c0.569,0,0.84,0.359,0.84,0.91v2.719h1v-2.889
	c0-0.98-0.561-1.65-1.57-1.65c-0.52,0-0.96,0.24-1.2,0.52v-0.42h-1V119.178z M168.382,114.738h-1v2.92
	c-0.11,0.44-0.49,0.71-0.92,0.71c-0.57,0-0.83-0.36-0.83-0.909v-2.721h-1v2.891c0,0.979,0.55,1.649,1.56,1.649
	c0.521,0,0.95-0.239,1.19-0.521v0.42h1V114.738z M173.096,115.229c-0.23-0.34-0.671-0.59-1.171-0.59s-0.899,0.189-1.109,0.47v-0.37
	h-1v4.439h1v-2.979c0.09-0.44,0.43-0.659,0.79-0.659c0.49,0,0.729,0.359,0.729,0.909v2.729h1v-2.979
	c0.09-0.44,0.431-0.659,0.79-0.659c0.49,0,0.73,0.359,0.73,0.909v2.729h1v-2.889c0-1.011-0.53-1.65-1.44-1.65
	C173.816,114.639,173.406,114.868,173.096,115.229L173.096,115.229z M178.229,118.799c0.2,0.25,0.641,0.479,1.13,0.479
	c1.301,0,2.061-1.04,2.061-2.319c0-1.271-0.76-2.32-2.061-2.32c-0.489,0-0.93,0.229-1.13,0.479v-2.44h-1v6.5h1V118.799z
	 M178.229,116.118c0.17-0.35,0.55-0.59,0.96-0.59c0.771,0,1.23,0.61,1.23,1.431c0,0.819-0.46,1.43-1.23,1.43
	c-0.41,0-0.79-0.24-0.96-0.59V116.118z M185.313,117.799c-0.11,0.43-0.47,0.64-0.95,0.64c-0.64,0-1.09-0.47-1.12-1.25h3.03v-0.36
	c0-1.3-0.68-2.189-1.93-2.189c-1.21,0-2.08,1-2.08,2.33c0,1.369,0.859,2.31,2.1,2.31c1.07,0,1.72-0.601,1.87-1.479H185.313z
	 M184.353,115.479c0.609,0,0.92,0.439,0.93,0.98h-2.01C183.393,115.818,183.803,115.479,184.353,115.479L184.353,115.479z
	 M189.866,114.719c-0.07-0.041-0.271-0.08-0.49-0.08c-0.43,0-0.82,0.229-0.99,0.56v-0.46h-1v4.439h1v-2.869
	c0.101-0.48,0.48-0.71,0.89-0.71c0.211,0,0.45,0.05,0.591,0.149V114.719z M196.984,113.828v-0.79h-4.04v0.92h2.979l-2.1,5.219h1.04
	L196.984,113.828z M199.887,116.019c0.67,0,1.08,0.489,1.08,1.18s-0.41,1.181-1.061,1.181c-0.689,0-1.06-0.42-1.14-1.041h-1.01
	c0.1,1.181,0.93,1.94,2.149,1.94c1.19,0,2.03-0.86,2.03-2.08c0-1.229-0.79-2.069-1.94-2.069c-0.47,0-0.859,0.17-1.05,0.319v-1.489
	h2.61v-0.92h-3.46v3.459h0.79C199.097,116.238,199.437,116.019,199.887,116.019L199.887,116.019z M204.85,116.019
	c0.671,0,1.08,0.489,1.08,1.18s-0.409,1.181-1.06,1.181c-0.69,0-1.06-0.42-1.14-1.041h-1.011c0.101,1.181,0.931,1.94,2.15,1.94
	c1.19,0,2.03-0.86,2.03-2.08c0-1.229-0.79-2.069-1.94-2.069c-0.47,0-0.86,0.17-1.05,0.319v-1.489h2.61v-0.92h-3.46v3.459h0.789
	C204.061,116.238,204.401,116.019,204.85,116.019L204.85,116.019z"/>
<path id="Due-15-january-2017" fill="#7E90A2" d="M128.72,137.248v-4.289h0.99c1.29,0,1.979,0.83,1.979,2.149
	c0,1.31-0.689,2.14-1.979,2.14H128.72z M127.68,138.178h2.07c1.81,0,2.979-1.199,2.979-3.069s-1.17-3.069-2.979-3.069h-2.07V138.178
	z M137.583,133.738h-1v2.92c-0.109,0.44-0.489,0.71-0.92,0.71c-0.569,0-0.83-0.36-0.83-0.909v-2.721h-1v2.891
	c0,0.979,0.55,1.649,1.561,1.649c0.52,0,0.95-0.239,1.189-0.521v0.42h1V133.738z M141.757,136.799c-0.11,0.43-0.47,0.64-0.95,0.64
	c-0.64,0-1.09-0.47-1.12-1.25h3.03v-0.36c0-1.3-0.68-2.189-1.93-2.189c-1.21,0-2.08,1-2.08,2.33c0,1.369,0.859,2.31,2.1,2.31
	c1.07,0,1.72-0.601,1.87-1.479H141.757z M140.797,134.479c0.61,0,0.92,0.439,0.93,0.98h-2.01
	C139.837,134.818,140.247,134.479,140.797,134.479L140.797,134.479z M148.254,132.039h-0.61l-1.84,0.93v1.05l1.44-0.729v4.889h1.01
	V132.039z M151.528,135.019c0.67,0,1.08,0.489,1.08,1.18s-0.41,1.181-1.06,1.181c-0.69,0-1.061-0.42-1.141-1.041h-1.01
	c0.1,1.181,0.93,1.94,2.15,1.94c1.189,0,2.029-0.86,2.029-2.08c0-1.229-0.79-2.069-1.939-2.069c-0.47,0-0.86,0.17-1.05,0.319v-1.489
	h2.609v-0.92h-3.46v3.459h0.79C150.738,135.238,151.077,135.019,151.528,135.019L151.528,135.019z M158.085,133.738h-1v4.77
	c0,0.42-0.17,0.621-0.551,0.621c-0.1,0-0.229-0.021-0.3-0.041v0.84c0.101,0.041,0.3,0.051,0.4,0.051c0.96,0,1.45-0.52,1.45-1.4
	V133.738z M158.204,132.398c0-0.34-0.289-0.609-0.619-0.609s-0.62,0.27-0.62,0.609s0.29,0.609,0.62,0.609
	S158.204,132.738,158.204,132.398L158.204,132.398z M162.918,138.178v-2.909c0-1.011-0.66-1.63-1.78-1.63
	c-0.909,0-1.609,0.57-1.739,1.33h0.96c0.109-0.311,0.359-0.48,0.76-0.48c0.57,0,0.85,0.35,0.85,0.801v0.359
	c-0.18-0.13-0.63-0.27-1.029-0.27c-0.98,0-1.73,0.59-1.73,1.43c0,0.91,0.75,1.449,1.66,1.449c0.5,0,0.95-0.18,1.1-0.33v0.25H162.918
	z M161.968,136.998c-0.109,0.28-0.51,0.45-0.909,0.45c-0.45,0-0.921-0.19-0.921-0.64c0-0.44,0.471-0.631,0.921-0.631
	c0.399,0,0.8,0.171,0.909,0.451V136.998z M164.292,138.178h1v-2.92c0.109-0.439,0.5-0.709,0.93-0.709c0.57,0,0.84,0.359,0.84,0.91
	v2.719h1v-2.889c0-0.98-0.56-1.65-1.57-1.65c-0.52,0-0.96,0.24-1.199,0.52v-0.42h-1V138.178z M173.125,133.738h-1v2.92
	c-0.109,0.44-0.49,0.71-0.92,0.71c-0.57,0-0.83-0.36-0.83-0.909v-2.721h-1v2.891c0,0.979,0.55,1.649,1.561,1.649
	c0.52,0,0.949-0.239,1.189-0.521v0.42h1V133.738z M177.979,138.178v-2.909c0-1.011-0.66-1.63-1.779-1.63
	c-0.91,0-1.61,0.57-1.74,1.33h0.96c0.109-0.311,0.359-0.48,0.76-0.48c0.57,0,0.85,0.35,0.85,0.801v0.359
	c-0.18-0.13-0.63-0.27-1.029-0.27c-0.98,0-1.73,0.59-1.73,1.43c0,0.91,0.75,1.449,1.66,1.449c0.5,0,0.95-0.18,1.1-0.33v0.25H177.979
	z M177.029,136.998c-0.109,0.28-0.51,0.45-0.909,0.45c-0.45,0-0.92-0.19-0.92-0.64c0-0.44,0.47-0.631,0.92-0.631
	c0.399,0,0.8,0.171,0.909,0.451V136.998z M181.832,133.719c-0.069-0.041-0.27-0.08-0.489-0.08c-0.431,0-0.82,0.229-0.99,0.56v-0.46
	h-1v4.439h1v-2.869c0.1-0.48,0.479-0.71,0.89-0.71c0.21,0,0.45,0.05,0.59,0.149V133.719z M184.566,139.879l2.341-6.141h-1.03
	l-1.14,3.27l-1.16-3.27h-1.07l1.72,4.561l-0.63,1.58H184.566z M192.973,133.729c0,0.529-0.529,1.05-1.16,1.75l-1.819,2.02v0.68h4.09
	v-0.909h-2.67l1.32-1.47c0.63-0.711,1.25-1.33,1.25-2.08c0-1.09-0.721-1.78-1.95-1.78c-1.141,0-1.931,0.8-2.05,1.94h1.069
	c0.04-0.58,0.37-1.021,0.98-1.021C192.614,132.858,192.973,133.219,192.973,133.729L192.973,133.729z M197.277,138.278
	c1.391,0,2.32-1.3,2.32-3.17s-0.93-3.17-2.32-3.17c-1.39,0-2.32,1.3-2.32,3.17S195.887,138.278,197.277,138.278L197.277,138.278z
	 M197.277,132.879c0.9,0,1.3,0.939,1.3,2.229s-0.399,2.229-1.3,2.229c-0.91,0-1.31-0.939-1.31-2.229
	S196.366,132.879,197.277,132.879L197.277,132.879z M202.811,132.039h-0.61l-1.84,0.93v1.05l1.439-0.729v4.889h1.011V132.039z
	 M207.874,132.828v-0.789h-4.04v0.92h2.979l-2.1,5.219h1.04L207.874,132.828z"/>
<path id="Description" fill="#7E90A2" d="M128.72,190.248v-4.289h0.99c1.29,0,1.979,0.83,1.979,2.149c0,1.31-0.689,2.14-1.979,2.14
	H128.72z M127.68,191.178h2.07c1.81,0,2.979-1.199,2.979-3.069s-1.17-3.069-2.979-3.069h-2.07V191.178z M136.684,189.799
	c-0.11,0.43-0.471,0.64-0.95,0.64c-0.64,0-1.09-0.47-1.12-1.25h3.03v-0.36c0-1.3-0.681-2.189-1.931-2.189c-1.21,0-2.08,1-2.08,2.33
	c0,1.369,0.86,2.31,2.101,2.31c1.07,0,1.72-0.601,1.87-1.479H136.684z M135.724,187.479c0.609,0,0.92,0.439,0.93,0.98h-2.01
	C134.764,187.818,135.173,187.479,135.724,187.479L135.724,187.479z M138.448,189.898c0.13,0.859,0.85,1.38,1.89,1.38
	c1,0,1.729-0.54,1.729-1.42c0-0.649-0.38-1.08-1.14-1.26l-0.939-0.22c-0.32-0.08-0.461-0.211-0.461-0.41
	c0-0.351,0.36-0.51,0.711-0.51c0.46,0,0.72,0.199,0.81,0.489h0.979c-0.149-0.81-0.739-1.31-1.779-1.31
	c-0.971,0-1.681,0.59-1.681,1.39c0,0.729,0.471,1.07,1.101,1.22l0.92,0.221c0.37,0.09,0.52,0.22,0.52,0.459
	c0,0.351-0.3,0.531-0.76,0.531c-0.439,0-0.77-0.19-0.88-0.561H138.448z M142.931,188.959c0,1.379,0.87,2.319,2.069,2.319
	c1.061,0,1.73-0.601,1.86-1.489h-1c-0.08,0.399-0.41,0.619-0.85,0.619c-0.67,0-1.08-0.609-1.08-1.449c0-0.841,0.41-1.451,1.08-1.451
	c0.439,0,0.77,0.221,0.85,0.621h1c-0.13-0.891-0.8-1.49-1.86-1.49C143.801,186.639,142.931,187.578,142.931,188.959L142.931,188.959
	z M150.424,186.719c-0.07-0.041-0.27-0.08-0.49-0.08c-0.43,0-0.819,0.229-0.989,0.56v-0.46h-1v4.439h1v-2.869
	c0.1-0.48,0.479-0.71,0.89-0.71c0.21,0,0.45,0.05,0.59,0.149V186.719z M152.537,186.738h-1v4.439h1V186.738z M152.657,185.398
	c0-0.34-0.29-0.609-0.62-0.609s-0.619,0.27-0.619,0.609s0.289,0.609,0.619,0.609S152.657,185.738,152.657,185.398L152.657,185.398z
	 M154.971,190.799c0.2,0.25,0.641,0.479,1.13,0.479c1.301,0,2.061-1.08,2.061-2.319c0-1.24-0.76-2.32-2.061-2.32
	c-0.489,0-0.93,0.229-1.13,0.479v-0.38h-1v6.141h1V190.799z M154.971,188.118c0.17-0.35,0.551-0.59,0.96-0.59
	c0.771,0,1.23,0.61,1.23,1.431c0,0.819-0.46,1.43-1.23,1.43c-0.409,0-0.79-0.24-0.96-0.59V188.118z M159.515,189.979
	c0,0.88,0.56,1.3,1.35,1.3c0.311,0,0.58-0.06,0.75-0.16v-0.909c-0.14,0.1-0.37,0.18-0.569,0.18c-0.33,0-0.53-0.16-0.53-0.521v-2.3h1
	v-0.83h-1v-1.189h-1v1.189h-0.7v0.83h0.7V189.979z M163.828,186.738h-1v4.439h1V186.738z M163.948,185.398
	c0-0.34-0.29-0.609-0.62-0.609s-0.62,0.27-0.62,0.609s0.29,0.609,0.62,0.609S163.948,185.738,163.948,185.398L163.948,185.398z
	 M169.172,188.959c0-1.36-0.86-2.32-2.11-2.32s-2.109,0.96-2.109,2.32c0,1.359,0.859,2.319,2.109,2.319
	S169.172,190.318,169.172,188.959L169.172,188.959z M168.172,188.959c0,0.84-0.391,1.459-1.11,1.459s-1.109-0.619-1.109-1.459
	c0-0.841,0.39-1.461,1.109-1.461S168.172,188.118,168.172,188.959L168.172,188.959z M170.295,191.178h1v-2.92
	c0.11-0.439,0.5-0.709,0.931-0.709c0.569,0,0.84,0.359,0.84,0.91v2.719h1v-2.889c0-0.98-0.561-1.65-1.57-1.65
	c-0.52,0-0.96,0.24-1.2,0.52v-0.42h-1V191.178z"/>
<path id="Quantity" fill="#7E90A2" d="M272.97,191.588l0.71-0.539l-0.51-0.631c0.53-0.56,0.85-1.369,0.85-2.31
	c0-1.84-1.18-3.17-2.84-3.17s-2.83,1.33-2.83,3.17c0,1.83,1.17,3.17,2.83,3.17c0.47,0,0.91-0.11,1.29-0.31L272.97,191.588z
	 M272.97,188.108c0,0.681-0.14,1.2-0.39,1.569l-0.49-0.609l-0.72,0.53l0.51,0.63c-0.21,0.08-0.44,0.12-0.7,0.12
	c-1.08,0-1.78-0.94-1.78-2.24s0.7-2.24,1.78-2.24S272.97,186.809,272.97,188.108L272.97,188.108z M278.864,186.738h-1v2.92
	c-0.11,0.44-0.49,0.71-0.92,0.71c-0.57,0-0.83-0.36-0.83-0.909v-2.721h-1v2.891c0,0.979,0.55,1.649,1.56,1.649
	c0.521,0,0.95-0.239,1.19-0.521v0.42h1V186.738z M283.717,191.178v-2.909c0-1.011-0.66-1.63-1.78-1.63
	c-0.91,0-1.609,0.57-1.739,1.33h0.96c0.109-0.311,0.359-0.48,0.76-0.48c0.57,0,0.85,0.35,0.85,0.801v0.359
	c-0.18-0.13-0.63-0.27-1.029-0.27c-0.98,0-1.73,0.59-1.73,1.43c0,0.91,0.75,1.449,1.66,1.449c0.5,0,0.95-0.18,1.1-0.33v0.25H283.717
	z M282.767,189.998c-0.109,0.28-0.51,0.45-0.91,0.45c-0.449,0-0.92-0.19-0.92-0.64c0-0.44,0.471-0.631,0.92-0.631
	c0.4,0,0.801,0.171,0.91,0.451V189.998z M285.091,191.178h1v-2.92c0.109-0.439,0.5-0.709,0.93-0.709c0.57,0,0.84,0.359,0.84,0.91
	v2.719h1v-2.889c0-0.98-0.56-1.65-1.57-1.65c-0.52,0-0.96,0.24-1.199,0.52v-0.42h-1V191.178z M290.464,189.979
	c0,0.88,0.561,1.3,1.35,1.3c0.311,0,0.58-0.06,0.75-0.16v-0.909c-0.14,0.1-0.369,0.18-0.569,0.18c-0.33,0-0.53-0.16-0.53-0.521v-2.3
	h1v-0.83h-1v-1.189h-1v1.189h-0.7v0.83h0.7V189.979z M294.778,186.738h-1v4.439h1V186.738z M294.898,185.398
	c0-0.34-0.29-0.609-0.62-0.609s-0.62,0.27-0.62,0.609s0.29,0.609,0.62,0.609S294.898,185.738,294.898,185.398L294.898,185.398z
	 M296.442,189.979c0,0.88,0.56,1.3,1.35,1.3c0.31,0,0.58-0.06,0.75-0.16v-0.909c-0.14,0.1-0.37,0.18-0.57,0.18
	c-0.33,0-0.529-0.16-0.529-0.521v-2.3h1v-0.83h-1v-1.189h-1v1.189h-0.7v0.83h0.7V189.979z M301.275,192.879l2.34-6.141h-1.029
	l-1.141,3.27l-1.16-3.27h-1.069l1.72,4.561l-0.63,1.58H301.275z"/>
<path id="Amount" fill="#7E90A2" d="M324.56,185.039l-2.36,6.139h1.051l0.63-1.699h2.35l0.63,1.699h1.061l-2.36-6.139H324.56z
	 M325.05,186.309l0.84,2.27h-1.68L325.05,186.309z M332.213,187.229c-0.229-0.34-0.67-0.59-1.17-0.59s-0.9,0.189-1.11,0.47v-0.37h-1
	v4.439h1v-2.979c0.091-0.44,0.431-0.659,0.79-0.659c0.49,0,0.73,0.359,0.73,0.909v2.729h1v-2.979c0.09-0.44,0.43-0.659,0.79-0.659
	c0.49,0,0.729,0.359,0.729,0.909v2.729h1v-2.889c0-1.011-0.529-1.65-1.439-1.65C332.933,186.639,332.524,186.868,332.213,187.229
	L332.213,187.229z M340.257,188.959c0-1.36-0.86-2.32-2.11-2.32s-2.109,0.96-2.109,2.32c0,1.359,0.859,2.319,2.109,2.319
	S340.257,190.318,340.257,188.959L340.257,188.959z M339.257,188.959c0,0.84-0.391,1.459-1.11,1.459s-1.109-0.619-1.109-1.459
	c0-0.841,0.39-1.461,1.109-1.461S339.257,188.118,339.257,188.959L339.257,188.959z M345.071,186.738h-1v2.92
	c-0.11,0.44-0.49,0.71-0.92,0.71c-0.57,0-0.83-0.36-0.83-0.909v-2.721h-1v2.891c0,0.979,0.55,1.649,1.56,1.649
	c0.521,0,0.95-0.239,1.19-0.521v0.42h1V186.738z M346.504,191.178h1v-2.92c0.109-0.439,0.5-0.709,0.93-0.709
	c0.57,0,0.84,0.359,0.84,0.91v2.719h1v-2.889c0-0.98-0.56-1.65-1.569-1.65c-0.521,0-0.96,0.24-1.2,0.52v-0.42h-1V191.178z
	 M351.877,189.979c0,0.88,0.561,1.3,1.351,1.3c0.31,0,0.58-0.06,0.75-0.16v-0.909c-0.141,0.1-0.37,0.18-0.57,0.18
	c-0.33,0-0.53-0.16-0.53-0.521v-2.3h1v-0.83h-1v-1.189h-1v1.189h-0.699v0.83h0.699V189.979z"/>
<polygon id="Line" fill="#D4DAE0" points="360.5,163.178 361,162.178 128,162.178 127.5,163.178 "/>
<g id="Mask_1_" transform="translate(11.000000, 38.000000)">
	<g id="path-5-Clipped">
		<g id="path-5">
		</g>
		<defs>
			<filter id="Adobe_OpacityMaskFilter" filterUnits="userSpaceOnUse" x="10" y="74.993" width="134" height="114">
				<feColorMatrix  type="matrix" values="1 0 0 0 0  0 1 0 0 0  0 0 1 0 0  0 0 0 1 0"/>
			</filter>
		</defs>
		<mask maskUnits="userSpaceOnUse" x="10" y="74.993" width="134" height="114" id="mask-2">
			<g filter="url(#Adobe_OpacityMaskFilter)">
				<rect id="path-1" x="11" y="75.993" fill="#FFFFFF" width="132" height="112"/>
			</g>
		</mask>
		
			<rect id="path-5_1_" x="11" y="75.993" mask="url(#mask-2)" fill="#FFFFFF" stroke="#D4DAE0" stroke-width="2" width="132" height="112"/>
	</g>
</g>
<g id="Rectangle-3">
	<g>
		<path id="path-3" fill="#FFFFFF" d="M36,76h106c13.807,0,25,11.193,25,25v123.807c0,13.807-11.193,25-25,25H36
			c-13.808,0-25-11.193-25-25V101C11,87.193,22.193,76,36,76z"/>
	</g>
	<path fill="none" stroke="#D4DAE0" d="M36.5,76.5h105c13.807,0,25,11.193,25,25v122.807c0,13.807-11.193,25-25,25h-105
		c-13.808,0-25-11.193-25-25V101.5C11.5,87.693,22.693,76.5,36.5,76.5z"/>
</g>
<rect id="Mask_2_" x="22" y="113.993" fill="#D4DAE0" width="132" height="7"/>
<rect id="Mask-Copy" x="22" y="120.993" fill="#EFF1F3" width="132" height="27"/>
<g id="Group-2" transform="translate(68.000000, 17.000000)">
	<circle id="Oval-3" fill="#D4DAE0" cx="12.5" cy="77.493" r="1.5"/>
	<path id="Rectangle-5" fill="#D4DAE0" d="M17.5,75.993h16c0.828,0,1.5,0.671,1.5,1.5l0,0c0,0.828-0.672,1.5-1.5,1.5h-16
		c-0.829,0-1.5-0.672-1.5-1.5l0,0C16,76.665,16.671,75.993,17.5,75.993z"/>
</g>
<path id="Invoice-Copy" fill="#7E90A2" d="M36.064,164.811h-1.248v7.367h1.248V164.811z M37.857,172.178h1.199v-3.504
	c0.133-0.527,0.601-0.852,1.116-0.852c0.685,0,1.008,0.432,1.008,1.092v3.264h1.2v-3.467c0-1.177-0.672-1.98-1.884-1.98
	c-0.624,0-1.152,0.288-1.44,0.624v-0.504h-1.199V172.178z M46.693,172.178l2.028-5.327h-1.248l-1.368,3.899l-1.38-3.899h-1.284
	l2.016,5.327H46.693z M54.485,169.515c0-1.632-1.032-2.784-2.532-2.784s-2.531,1.152-2.531,2.784s1.031,2.784,2.531,2.784
	S54.485,171.146,54.485,169.515L54.485,169.515z M53.284,169.515c0,1.008-0.468,1.752-1.332,1.752c-0.863,0-1.332-0.744-1.332-1.752
	c0-1.009,0.469-1.753,1.332-1.753C52.817,167.762,53.284,168.506,53.284,169.515L53.284,169.515z M57.033,166.851h-1.2v5.327h1.2
	V166.851z M57.177,165.242c0-0.408-0.348-0.732-0.744-0.732c-0.396,0-0.744,0.324-0.744,0.732s0.349,0.732,0.744,0.732
	C56.829,165.975,57.177,165.65,57.177,165.242L57.177,165.242z M58.381,169.515c0,1.655,1.044,2.784,2.484,2.784
	c1.271,0,2.076-0.721,2.231-1.789h-1.199c-0.097,0.48-0.492,0.744-1.021,0.744c-0.804,0-1.296-0.731-1.296-1.739
	c0-1.009,0.492-1.74,1.296-1.74c0.528,0,0.924,0.265,1.021,0.744h1.199c-0.155-1.068-0.96-1.788-2.231-1.788
	C59.425,166.73,58.381,167.858,58.381,169.515L58.381,169.515z M67.686,170.522c-0.132,0.517-0.564,0.769-1.141,0.769
	c-0.768,0-1.308-0.564-1.344-1.5h3.636v-0.433c0-1.56-0.815-2.628-2.315-2.628c-1.452,0-2.496,1.2-2.496,2.796
	c0,1.644,1.032,2.772,2.52,2.772c1.284,0,2.064-0.721,2.244-1.776H67.686z M66.533,167.738c0.732,0,1.104,0.528,1.116,1.176h-2.412
	C65.381,168.146,65.873,167.738,66.533,167.738L66.533,167.738z"/>
<path id="To-Copy" fill="#7E90A2" d="M34.27,195.48h1.836v4.697h0.937v-4.697h1.836v-0.828H34.27V195.48z M42.814,198.181
	c0-1.224-0.773-2.089-1.898-2.089s-1.899,0.865-1.899,2.089s0.774,2.088,1.899,2.088S42.814,199.404,42.814,198.181L42.814,198.181z
	 M41.914,198.181c0,0.756-0.352,1.313-0.999,1.313c-0.648,0-0.999-0.558-0.999-1.313c0-0.757,0.351-1.314,0.999-1.314
	C41.563,196.866,41.914,197.424,41.914,198.181L41.914,198.181z"/>
<path id="Ridgeway-School" fill="#7E90A2" d="M50.908,197.938l1.539,2.24h1.063l-1.603-2.276c0.873-0.135,1.413-0.666,1.413-1.593
	c0-1.08-0.738-1.656-1.881-1.656h-2.133v5.525h0.936v-2.24H50.908z M50.242,195.463h1.179c0.621,0,0.973,0.332,0.973,0.846
	c0,0.513-0.352,0.846-0.973,0.846h-1.179V195.463z M55.322,196.183h-0.899v3.995h0.899V196.183z M55.43,194.977
	c0-0.307-0.261-0.549-0.559-0.549c-0.297,0-0.558,0.242-0.558,0.549c0,0.306,0.261,0.549,0.558,0.549
	C55.169,195.525,55.43,195.282,55.43,194.977L55.43,194.977z M59.204,200.178h0.899v-5.85h-0.899v2.196
	c-0.181-0.226-0.576-0.433-1.018-0.433c-1.17,0-1.854,0.945-1.854,2.089c0,1.151,0.684,2.088,1.854,2.088
	c0.441,0,0.837-0.207,1.018-0.433V200.178z M59.204,198.937c-0.153,0.315-0.495,0.53-0.864,0.53c-0.693,0-1.107-0.549-1.107-1.286
	c0-0.738,0.414-1.287,1.107-1.287c0.369,0,0.711,0.216,0.864,0.53V198.937z M63.987,199.908c0,0.747-0.315,1.152-0.981,1.152
	c-0.495,0-0.81-0.225-0.9-0.666h-0.873c0.1,0.873,0.757,1.404,1.773,1.404c1.063,0,1.881-0.604,1.881-1.953v-3.663h-0.899v0.323
	c-0.181-0.215-0.567-0.414-1.018-0.414c-1.179,0-1.854,0.973-1.854,2.025s0.675,2.025,1.854,2.025c0.45,0,0.837-0.198,1.018-0.414
	V199.908z M63.987,198.873c-0.153,0.271-0.486,0.478-0.864,0.478c-0.693,0-1.089-0.522-1.089-1.233s0.396-1.232,1.089-1.232
	c0.378,0,0.711,0.207,0.864,0.477V198.873z M68.643,198.937c-0.1,0.387-0.424,0.575-0.855,0.575c-0.576,0-0.981-0.422-1.008-1.125
	h2.727v-0.323c0-1.17-0.611-1.972-1.736-1.972c-1.09,0-1.872,0.9-1.872,2.098c0,1.232,0.773,2.079,1.89,2.079
	c0.963,0,1.548-0.54,1.683-1.332H68.643z M67.779,196.849c0.549,0,0.828,0.396,0.837,0.882h-1.81
	C66.914,197.154,67.283,196.849,67.779,196.849L67.779,196.849z M73.308,196.183h-0.819l-0.702,2.835l-0.773-2.835h-0.9l1.161,3.995
	h0.899l0.712-2.78l0.711,2.78h0.899l1.161-3.995h-0.873l-0.773,2.835L73.308,196.183z M79.583,200.178v-2.618
	c0-0.909-0.594-1.468-1.602-1.468c-0.819,0-1.449,0.514-1.566,1.197h0.864c0.1-0.279,0.324-0.432,0.685-0.432
	c0.513,0,0.765,0.314,0.765,0.72v0.324c-0.162-0.117-0.567-0.243-0.927-0.243c-0.882,0-1.558,0.531-1.558,1.287
	c0,0.819,0.676,1.305,1.494,1.305c0.45,0,0.855-0.162,0.99-0.297v0.225H79.583z M78.729,199.116
	c-0.099,0.252-0.459,0.405-0.819,0.405c-0.404,0-0.828-0.171-0.828-0.576c0-0.396,0.424-0.566,0.828-0.566
	c0.36,0,0.721,0.152,0.819,0.404V199.116z M82.188,201.709l2.106-5.526h-0.928l-1.025,2.942l-1.044-2.942h-0.963l1.548,4.104
	l-0.567,1.423H82.188z M86.973,198.648c0.198,1.025,1.035,1.62,2.205,1.62c1.144,0,1.972-0.64,1.972-1.675
	c0-0.827-0.567-1.332-1.432-1.529l-0.963-0.225c-0.495-0.117-0.729-0.352-0.729-0.721c0-0.459,0.404-0.765,0.999-0.765
	c0.656,0,1.008,0.323,1.151,0.737h0.937c-0.198-0.918-0.9-1.529-2.098-1.529c-1.115,0-1.881,0.702-1.881,1.638
	c0,0.892,0.612,1.306,1.377,1.485l0.937,0.225c0.576,0.135,0.801,0.36,0.801,0.747c0,0.513-0.423,0.819-1.071,0.819
	c-0.603,0-1.07-0.262-1.251-0.828H86.973z M91.962,198.181c0,1.241,0.783,2.088,1.863,2.088c0.954,0,1.557-0.54,1.674-1.341H94.6
	c-0.072,0.359-0.369,0.558-0.766,0.558c-0.603,0-0.972-0.549-0.972-1.305c0-0.757,0.369-1.306,0.972-1.306
	c0.396,0,0.693,0.198,0.766,0.559h0.899c-0.117-0.801-0.72-1.342-1.674-1.342C92.745,196.092,91.962,196.938,91.962,198.181
	L91.962,198.181z M96.475,200.178h0.899v-2.627c0.1-0.396,0.45-0.64,0.838-0.64c0.513,0,0.756,0.324,0.756,0.819v2.447h0.899v-2.601
	c0-0.882-0.504-1.485-1.413-1.485c-0.468,0-0.863,0.217-1.08,0.469v-2.232h-0.899V200.178z M104.623,198.181
	c0-1.224-0.774-2.089-1.899-2.089s-1.899,0.865-1.899,2.089s0.774,2.088,1.899,2.088S104.623,199.404,104.623,198.181
	L104.623,198.181z M103.723,198.181c0,0.756-0.351,1.313-0.999,1.313s-0.999-0.558-0.999-1.313c0-0.757,0.351-1.314,0.999-1.314
	S103.723,197.424,103.723,198.181L103.723,198.181z M109.18,198.181c0-1.224-0.773-2.089-1.898-2.089s-1.899,0.865-1.899,2.089
	s0.774,2.088,1.899,2.088S109.18,199.404,109.18,198.181L109.18,198.181z M108.281,198.181c0,0.756-0.352,1.313-0.999,1.313
	c-0.648,0-0.999-0.558-0.999-1.313c0-0.757,0.351-1.314,0.999-1.314C107.929,196.866,108.281,197.424,108.281,198.181
	L108.281,198.181z M111.091,194.328h-0.899v5.85h0.899V194.328z"/>
<path id="Invoice-Number-Copy" fill="#7E90A2" d="M35.548,207.652h-0.937v5.525h0.937V207.652z M36.892,213.178h0.9v-2.627
	c0.099-0.396,0.45-0.64,0.837-0.64c0.513,0,0.756,0.324,0.756,0.819v2.447h0.9v-2.601c0-0.882-0.504-1.485-1.413-1.485
	c-0.468,0-0.864,0.217-1.08,0.469v-0.378h-0.9V213.178z M43.52,213.178l1.521-3.995h-0.936l-1.026,2.925l-1.035-2.925H41.08
	l1.512,3.995H43.52z M49.364,211.181c0-1.224-0.774-2.089-1.899-2.089s-1.898,0.865-1.898,2.089s0.773,2.088,1.898,2.088
	S49.364,212.404,49.364,211.181L49.364,211.181z M48.463,211.181c0,0.756-0.351,1.313-0.999,1.313c-0.647,0-0.998-0.558-0.998-1.313
	c0-0.757,0.351-1.314,0.998-1.314C48.113,209.866,48.463,210.424,48.463,211.181L48.463,211.181z M51.275,209.183h-0.899v3.995
	h0.899V209.183z M51.383,207.977c0-0.307-0.262-0.549-0.559-0.549s-0.558,0.242-0.558,0.549c0,0.306,0.261,0.549,0.558,0.549
	S51.383,208.282,51.383,207.977L51.383,207.977z M52.286,211.181c0,1.241,0.782,2.088,1.862,2.088c0.954,0,1.558-0.54,1.674-1.341
	h-0.899c-0.072,0.359-0.369,0.558-0.765,0.558c-0.604,0-0.973-0.549-0.973-1.305c0-0.757,0.369-1.306,0.973-1.306
	c0.396,0,0.692,0.198,0.765,0.559h0.899c-0.116-0.801-0.72-1.342-1.674-1.342C53.069,209.092,52.286,209.938,52.286,211.181
	L52.286,211.181z M59.264,211.937c-0.099,0.387-0.423,0.575-0.854,0.575c-0.576,0-0.981-0.422-1.008-1.125h2.727v-0.323
	c0-1.17-0.612-1.972-1.737-1.972c-1.089,0-1.872,0.9-1.872,2.098c0,1.232,0.774,2.079,1.891,2.079c0.963,0,1.548-0.54,1.683-1.332
	H59.264z M58.401,209.849c0.549,0,0.827,0.396,0.837,0.882h-1.81C57.536,210.154,57.906,209.849,58.401,209.849L58.401,209.849z"/>
<path id="_x37_75-copy" fill="#7E90A2" d="M69.4,208.363v-0.711h-3.636v0.828h2.682l-1.89,4.697h0.936L69.4,208.363z
	 M73.714,208.363v-0.711h-3.636v0.828h2.682l-1.89,4.697h0.936L73.714,208.363z M76.327,210.334c0.603,0,0.972,0.441,0.972,1.063
	s-0.369,1.063-0.954,1.063c-0.621,0-0.954-0.379-1.025-0.937H74.41c0.09,1.062,0.837,1.746,1.935,1.746
	c1.071,0,1.827-0.774,1.827-1.872c0-1.107-0.711-1.863-1.746-1.863c-0.423,0-0.773,0.153-0.945,0.288v-1.341h2.35v-0.828h-3.114
	v3.114h0.711C75.616,210.532,75.922,210.334,76.327,210.334L76.327,210.334z"/>
<path id="Rectangle-386-Copy" fill="#57C40A" d="M36,128.178h23c0.552,0,1,0.448,1,1v8c0,0.553-0.448,1-1,1H36c-0.553,0-1-0.447-1-1
	v-8C35,128.626,35.448,128.178,36,128.178z"/>
<path id="_x35_50.00" fill="#7E90A2" d="M64.984,130.578h2.896v0.816h-2.216l-0.288,1.424l0.016,0.016
	c0.123-0.139,0.279-0.244,0.468-0.315c0.189-0.072,0.378-0.108,0.564-0.108c0.277,0,0.525,0.047,0.744,0.141
	c0.219,0.093,0.402,0.224,0.552,0.392s0.263,0.366,0.34,0.597c0.077,0.229,0.116,0.477,0.116,0.743c0,0.224-0.036,0.455-0.108,0.692
	c-0.071,0.237-0.187,0.453-0.344,0.648c-0.157,0.193-0.358,0.354-0.604,0.479c-0.246,0.125-0.539,0.188-0.88,0.188
	c-0.272,0-0.524-0.037-0.757-0.108c-0.231-0.072-0.436-0.181-0.611-0.324c-0.177-0.144-0.316-0.321-0.42-0.532
	c-0.104-0.211-0.162-0.457-0.173-0.74h0.912c0.027,0.305,0.131,0.537,0.313,0.7s0.421,0.244,0.72,0.244
	c0.192,0,0.354-0.032,0.488-0.096c0.133-0.063,0.241-0.152,0.324-0.265c0.082-0.111,0.141-0.242,0.176-0.392
	c0.034-0.149,0.052-0.31,0.052-0.479c0-0.155-0.021-0.303-0.063-0.444c-0.043-0.142-0.107-0.266-0.192-0.372
	s-0.196-0.191-0.332-0.256s-0.295-0.096-0.476-0.096c-0.192,0-0.372,0.035-0.54,0.107s-0.29,0.207-0.364,0.404h-0.912
	L64.984,130.578z M69.587,130.578h2.896v0.816h-2.216l-0.288,1.424l0.016,0.016c0.123-0.139,0.279-0.244,0.469-0.315
	c0.189-0.072,0.377-0.108,0.563-0.108c0.277,0,0.525,0.047,0.744,0.141c0.219,0.093,0.402,0.224,0.552,0.392s0.263,0.366,0.34,0.597
	c0.078,0.229,0.116,0.477,0.116,0.743c0,0.224-0.036,0.455-0.107,0.692c-0.072,0.237-0.187,0.453-0.345,0.648
	c-0.157,0.193-0.358,0.354-0.604,0.479c-0.245,0.125-0.539,0.188-0.88,0.188c-0.272,0-0.524-0.037-0.756-0.108
	c-0.232-0.072-0.437-0.181-0.612-0.324s-0.316-0.321-0.42-0.532c-0.104-0.211-0.161-0.457-0.172-0.74h0.912
	c0.026,0.305,0.13,0.537,0.312,0.7s0.422,0.244,0.72,0.244c0.192,0,0.355-0.032,0.488-0.096c0.134-0.063,0.241-0.152,0.324-0.265
	c0.083-0.111,0.142-0.242,0.176-0.392c0.035-0.149,0.052-0.31,0.052-0.479c0-0.155-0.021-0.303-0.063-0.444
	s-0.106-0.266-0.192-0.372c-0.085-0.106-0.195-0.191-0.332-0.256c-0.136-0.064-0.294-0.096-0.476-0.096
	c-0.192,0-0.372,0.035-0.54,0.107s-0.289,0.207-0.364,0.404h-0.912L69.587,130.578z M75.43,130.467c0.399,0,0.727,0.092,0.979,0.275
	c0.254,0.184,0.451,0.419,0.592,0.704c0.142,0.286,0.237,0.599,0.288,0.94c0.051,0.341,0.076,0.672,0.076,0.992
	c0,0.319-0.025,0.65-0.076,0.992c-0.051,0.341-0.146,0.654-0.288,0.939c-0.141,0.285-0.338,0.52-0.592,0.704
	c-0.253,0.184-0.58,0.276-0.979,0.276c-0.4,0-0.727-0.093-0.98-0.276c-0.253-0.185-0.45-0.419-0.592-0.704s-0.237-0.599-0.288-0.939
	c-0.051-0.342-0.076-0.673-0.076-0.992c0-0.32,0.025-0.651,0.076-0.992c0.051-0.342,0.146-0.654,0.288-0.94
	c0.142-0.285,0.339-0.521,0.592-0.704C74.703,130.559,75.03,130.467,75.43,130.467L75.43,130.467z M75.43,135.53
	c0.197,0,0.362-0.058,0.496-0.172c0.133-0.114,0.238-0.27,0.315-0.464c0.077-0.195,0.132-0.423,0.164-0.684
	c0.032-0.262,0.048-0.539,0.048-0.832c0-0.294-0.016-0.57-0.048-0.828c-0.032-0.259-0.087-0.487-0.164-0.685
	s-0.183-0.353-0.315-0.468c-0.134-0.115-0.299-0.172-0.496-0.172c-0.203,0-0.369,0.057-0.5,0.172s-0.235,0.271-0.313,0.468
	s-0.132,0.426-0.164,0.685c-0.031,0.258-0.048,0.534-0.048,0.828c0,0.293,0.017,0.57,0.048,0.832
	c0.032,0.261,0.087,0.488,0.164,0.684c0.077,0.194,0.182,0.35,0.313,0.464S75.227,135.53,75.43,135.53L75.43,135.53z
	 M78.361,135.099h1.112v1.079h-1.112V135.099z M82.411,130.467c0.4,0,0.727,0.092,0.979,0.275c0.254,0.184,0.451,0.419,0.593,0.704
	c0.141,0.286,0.237,0.599,0.288,0.94c0.05,0.341,0.075,0.672,0.075,0.992c0,0.319-0.025,0.65-0.075,0.992
	c-0.051,0.341-0.147,0.654-0.288,0.939c-0.142,0.285-0.339,0.52-0.593,0.704c-0.253,0.184-0.579,0.276-0.979,0.276
	s-0.727-0.093-0.98-0.276c-0.253-0.185-0.45-0.419-0.592-0.704c-0.141-0.285-0.237-0.599-0.288-0.939
	c-0.051-0.342-0.075-0.673-0.075-0.992c0-0.32,0.024-0.651,0.075-0.992c0.051-0.342,0.147-0.654,0.288-0.94
	c0.142-0.285,0.339-0.521,0.592-0.704C81.685,130.559,82.011,130.467,82.411,130.467L82.411,130.467z M82.411,135.53
	c0.197,0,0.362-0.058,0.496-0.172c0.133-0.114,0.238-0.27,0.315-0.464c0.078-0.195,0.133-0.423,0.164-0.684
	c0.032-0.262,0.049-0.539,0.049-0.832c0-0.294-0.017-0.57-0.049-0.828c-0.031-0.259-0.086-0.487-0.164-0.685
	c-0.077-0.197-0.183-0.353-0.315-0.468c-0.134-0.115-0.299-0.172-0.496-0.172c-0.203,0-0.369,0.057-0.5,0.172
	s-0.234,0.271-0.313,0.468c-0.077,0.197-0.132,0.426-0.163,0.685c-0.032,0.258-0.049,0.534-0.049,0.828
	c0,0.293,0.017,0.57,0.049,0.832c0.031,0.261,0.086,0.488,0.163,0.684c0.078,0.194,0.182,0.35,0.313,0.464
	S82.208,135.53,82.411,135.53L82.411,135.53z M87.014,130.467c0.4,0,0.727,0.092,0.98,0.275c0.253,0.184,0.45,0.419,0.592,0.704
	c0.142,0.286,0.237,0.599,0.288,0.94c0.051,0.341,0.076,0.672,0.076,0.992c0,0.319-0.025,0.65-0.076,0.992
	c-0.051,0.341-0.146,0.654-0.288,0.939s-0.339,0.52-0.592,0.704c-0.254,0.184-0.58,0.276-0.98,0.276
	c-0.399,0-0.727-0.093-0.979-0.276c-0.254-0.185-0.451-0.419-0.592-0.704c-0.142-0.285-0.237-0.599-0.288-0.939
	c-0.051-0.342-0.076-0.673-0.076-0.992c0-0.32,0.025-0.651,0.076-0.992c0.051-0.342,0.146-0.654,0.288-0.94
	c0.141-0.285,0.338-0.521,0.592-0.704C86.287,130.559,86.615,130.467,87.014,130.467L87.014,130.467z M87.014,135.53
	c0.197,0,0.363-0.058,0.496-0.172c0.134-0.114,0.239-0.27,0.316-0.464c0.077-0.195,0.132-0.423,0.164-0.684
	c0.031-0.262,0.048-0.539,0.048-0.832c0-0.294-0.017-0.57-0.048-0.828c-0.032-0.259-0.087-0.487-0.164-0.685
	s-0.183-0.353-0.316-0.468c-0.133-0.115-0.299-0.172-0.496-0.172c-0.202,0-0.369,0.057-0.5,0.172s-0.234,0.271-0.312,0.468
	s-0.132,0.426-0.164,0.685c-0.032,0.258-0.048,0.534-0.048,0.828c0,0.293,0.016,0.57,0.048,0.832
	c0.032,0.261,0.087,0.488,0.164,0.684c0.077,0.194,0.181,0.35,0.312,0.464S86.812,135.53,87.014,135.53L87.014,135.53z"/>
<path id="Line-Copy-2" fill="none" stroke="#D4DAE0" stroke-linecap="square" d="M0.5,225.5h396.264"/>
<rect id="Rectangle" x="22.5" y="113.5" fill="none" stroke="#D4DAE0" width="131" height="112.023"/>
<g>
	<linearGradient id="SVGID_1_" gradientUnits="userSpaceOnUse" x1="301.0735" y1="65.9233" x2="333.0602" y2="33.9366">
		<stop  offset="0" style="stop-color:#ED334D"/>
		<stop  offset="1" style="stop-color:#F9A233"/>
	</linearGradient>
	<polygon fill="url(#SVGID_1_)" points="319.638,45.521 323.981,45.521 323.475,49.276 324.327,49.276 325.443,40.993 
		324.59,40.993 324.093,44.686 319.75,44.686 320.247,40.993 319.395,40.993 318.281,49.276 319.132,49.276 	"/>
	<linearGradient id="SVGID_2_" gradientUnits="userSpaceOnUse" x1="304.6458" y1="69.4951" x2="336.6324" y2="37.5085">
		<stop  offset="0" style="stop-color:#ED334D"/>
		<stop  offset="1" style="stop-color:#F9A233"/>
	</linearGradient>
	<polygon fill="url(#SVGID_2_)" points="327.875,41.828 331.911,41.828 332.024,40.993 327.135,40.993 326.021,49.276 
		330.874,49.276 330.987,48.441 326.986,48.441 327.378,45.521 331.38,45.521 331.491,44.686 327.49,44.686 	"/>
	<linearGradient id="SVGID_3_" gradientUnits="userSpaceOnUse" x1="309.4045" y1="74.2568" x2="341.3924" y2="42.269">
		<stop  offset="0" style="stop-color:#ED334D"/>
		<stop  offset="1" style="stop-color:#F9A233"/>
	</linearGradient>
	<path fill="url(#SVGID_3_)" d="M332.945,49.276l1.657-2.726h3.569l0.936,2.726h0.895l-2.748-8.283h-0.203l-5.028,8.283H332.945z
		 M336.911,42.753l1.01,2.999h-2.832L336.911,42.753z"/>
	<linearGradient id="SVGID_4_" gradientUnits="userSpaceOnUse" x1="310.5911" y1="75.4409" x2="342.5781" y2="43.4539">
		<stop  offset="0" style="stop-color:#ED334D"/>
		<stop  offset="1" style="stop-color:#F9A233"/>
	</linearGradient>
	<polygon fill="url(#SVGID_4_)" points="344.819,43.719 344.332,44.519 342.51,47.517 341.5,44.519 341.251,43.719 340.315,40.993 
		339.42,40.993 342.169,49.276 342.371,49.276 347.401,40.993 346.475,40.993 	"/>
	<linearGradient id="SVGID_5_" gradientUnits="userSpaceOnUse" x1="314.9758" y1="79.8242" x2="346.9615" y2="47.8386">
		<stop  offset="0" style="stop-color:#ED334D"/>
		<stop  offset="1" style="stop-color:#F9A233"/>
	</linearGradient>
	<polygon fill="url(#SVGID_5_)" points="350.063,49.276 350.905,49.276 351.42,45.446 354.72,40.993 353.735,40.993 351.113,44.511 
		349.405,40.993 348.424,40.993 350.578,45.446 	"/>
	<linearGradient id="SVGID_6_" gradientUnits="userSpaceOnUse" x1="309.8499" y1="74.6997" x2="341.8361" y2="42.7135">
		<stop  offset="0" style="stop-color:#ED334D"/>
		<stop  offset="1" style="stop-color:#F9A233"/>
	</linearGradient>
	<path fill="url(#SVGID_6_)" d="M320.941,51.075l-8.019,16.897h3.791l1.24-2.739h6.863l0.502,2.739h3.792l-3.472-16.897H320.941z
		 M319.409,62.03l3.42-7.539l1.392,7.539H319.409z"/>
	<linearGradient id="SVGID_7_" gradientUnits="userSpaceOnUse" x1="316.9299" y1="81.7803" x2="348.9168" y2="49.7934">
		<stop  offset="0" style="stop-color:#ED334D"/>
		<stop  offset="1" style="stop-color:#F9A233"/>
	</linearGradient>
	<path fill="url(#SVGID_7_)" d="M340.669,51.075h-6.706l-2.274,16.897h3.451l0.771-5.727h2.313l2.517,5.727h3.666l-2.779-6.244
		l0.269-0.126c1.989-0.944,3.448-2.835,3.715-4.817C346.035,53.635,343.818,51.075,340.669,51.075z M342.158,56.785
		c-0.19,1.406-1.329,2.507-2.595,2.507h-3.255l0.675-5.014h3.255C341.504,54.277,342.348,55.378,342.158,56.785z"/>
	<linearGradient id="SVGID_8_" gradientUnits="userSpaceOnUse" x1="322.6213" y1="87.4731" x2="354.6092" y2="55.4853">
		<stop  offset="0" style="stop-color:#ED334D"/>
		<stop  offset="1" style="stop-color:#F9A233"/>
	</linearGradient>
	<polygon fill="url(#SVGID_8_)" points="347.706,67.972 351.159,67.972 353.434,51.075 349.981,51.075 	"/>
	<linearGradient id="SVGID_9_" gradientUnits="userSpaceOnUse" x1="299.7346" y1="64.5845" x2="331.7207" y2="32.5984">
		<stop  offset="0" style="stop-color:#ED334D"/>
		<stop  offset="1" style="stop-color:#F9A233"/>
	</linearGradient>
	<path fill="url(#SVGID_9_)" d="M313.329,58.787h-3.298h-4.646L305,61.642h4.232c-1.055,1.785-3.021,3.027-5.11,3.027
		c-2.854,0-4.857-2.314-4.474-5.168c0.385-2.854,3.01-5.168,5.864-5.168c1.622,0,2.969,0.748,3.759,1.917l3.074-1.668
		c-1.245-2.136-3.562-3.529-6.392-3.529c-4.666,0-8.957,3.782-9.586,8.449c-0.628,4.666,2.646,8.448,7.312,8.448
		c3.927,0,7.587-2.678,9.023-6.307c0.271-0.684,0.463-1.401,0.563-2.141C313.298,59.26,313.319,59.022,313.329,58.787z"/>
	<linearGradient id="SVGID_10_" gradientUnits="userSpaceOnUse" x1="294.2922" y1="59.1426" x2="326.279" y2="27.1559">
		<stop  offset="0" style="stop-color:#ED334D"/>
		<stop  offset="1" style="stop-color:#F9A233"/>
	</linearGradient>
	<path fill="url(#SVGID_10_)" d="M315.777,34.665l-12.649,1.282c-0.608,0.055-1.359,0.556-1.669,1.113l-5.232,9.409
		c-0.311,0.558-0.635,1.507-0.722,2.11l-1.593,11.07c-0.088,0.603,0.335,1.096,0.938,1.096h0.013l0.063-0.007
		c-0.004-0.467,0.024-0.941,0.089-1.42c0.715-5.312,5.623-9.633,10.94-9.633c3.205,0,6.037,1.573,7.572,4.208l0.166,0.284
		l0.054,0.093c0.053,0.06,0.129,0.099,0.216,0.099c0.124,0,0.229-0.081,0.269-0.192l0.015-0.113l2.479-18.402
		C316.812,35.058,316.384,34.609,315.777,34.665z M312.118,38.366l-1.505,6.778c-0.087,0.603-0.655,1.151-1.265,1.219l-10.029,1.179
		c-0.608,0.068-0.867-0.338-0.575-0.904l3.942-7.591c0.292-0.564,1.029-1.065,1.637-1.113l6.848-0.577
		C311.78,37.309,312.205,37.762,312.118,38.366z"/>
</g>
<g>
	<linearGradient id="SVGID_11_" gradientUnits="userSpaceOnUse" x1="120.8435" y1="167.6406" x2="130.5856" y2="157.8986">
		<stop  offset="0" style="stop-color:#ED334D"/>
		<stop  offset="1" style="stop-color:#F9A233"/>
	</linearGradient>
	<polygon fill="url(#SVGID_11_)" points="126.498,161.426 127.821,161.426 127.666,162.57 127.926,162.57 128.266,160.048 
		128.006,160.048 127.854,161.172 126.531,161.172 126.683,160.048 126.424,160.048 126.084,162.57 126.344,162.57 	"/>
	<linearGradient id="SVGID_12_" gradientUnits="userSpaceOnUse" x1="121.9329" y1="168.7285" x2="131.6738" y2="158.9875">
		<stop  offset="0" style="stop-color:#ED334D"/>
		<stop  offset="1" style="stop-color:#F9A233"/>
	</linearGradient>
	<polygon fill="url(#SVGID_12_)" points="129.007,160.302 130.236,160.302 130.27,160.048 128.781,160.048 128.442,162.57 
		129.92,162.57 129.954,162.316 128.736,162.316 128.855,161.426 130.074,161.426 130.108,161.172 128.889,161.172 	"/>
	<linearGradient id="SVGID_13_" gradientUnits="userSpaceOnUse" x1="123.3816" y1="170.1797" x2="133.1243" y2="160.437">
		<stop  offset="0" style="stop-color:#ED334D"/>
		<stop  offset="1" style="stop-color:#F9A233"/>
	</linearGradient>
	<path fill="url(#SVGID_13_)" d="M130.551,162.57l0.505-0.83h1.087l0.285,0.83h0.272l-0.837-2.522h-0.062l-1.532,2.522H130.551z
		 M131.759,160.583l0.308,0.914h-0.862L131.759,160.583z"/>
	<linearGradient id="SVGID_14_" gradientUnits="userSpaceOnUse" x1="123.7424" y1="170.54" x2="133.4849" y2="160.7976">
		<stop  offset="0" style="stop-color:#ED334D"/>
		<stop  offset="1" style="stop-color:#F9A233"/>
	</linearGradient>
	<polygon fill="url(#SVGID_14_)" points="134.167,160.878 134.019,161.121 133.464,162.034 133.156,161.121 133.081,160.878 
		132.795,160.048 132.523,160.048 133.36,162.57 133.422,162.57 134.954,160.048 134.672,160.048 	"/>
	<linearGradient id="SVGID_15_" gradientUnits="userSpaceOnUse" x1="125.0793" y1="171.874" x2="134.8204" y2="162.133">
		<stop  offset="0" style="stop-color:#ED334D"/>
		<stop  offset="1" style="stop-color:#F9A233"/>
	</linearGradient>
	<polygon fill="url(#SVGID_15_)" points="135.764,162.57 136.021,162.57 136.178,161.403 137.183,160.048 136.883,160.048 
		136.084,161.119 135.564,160.048 135.265,160.048 135.922,161.403 	"/>
	<linearGradient id="SVGID_16_" gradientUnits="userSpaceOnUse" x1="123.5164" y1="170.3135" x2="133.2588" y2="160.571">
		<stop  offset="0" style="stop-color:#ED334D"/>
		<stop  offset="1" style="stop-color:#F9A233"/>
	</linearGradient>
	<path fill="url(#SVGID_16_)" d="M126.894,163.118l-2.442,5.146h1.155l0.378-0.834h2.09l0.153,0.834h1.155l-1.057-5.146H126.894z
		 M126.428,166.454l1.042-2.296l0.424,2.296H126.428z"/>
	<linearGradient id="SVGID_17_" gradientUnits="userSpaceOnUse" x1="125.6731" y1="172.4707" x2="135.4157" y2="162.7281">
		<stop  offset="0" style="stop-color:#ED334D"/>
		<stop  offset="1" style="stop-color:#F9A233"/>
	</linearGradient>
	<path fill="url(#SVGID_17_)" d="M132.904,163.118h-2.043l-0.692,5.146h1.051l0.235-1.744h0.704l0.767,1.744h1.117l-0.847-1.901
		l0.082-0.039c0.605-0.287,1.05-0.863,1.131-1.467C134.538,163.897,133.863,163.118,132.904,163.118z M133.357,164.857
		c-0.058,0.428-0.405,0.764-0.79,0.764h-0.991l0.206-1.527h0.991C133.157,164.094,133.414,164.429,133.357,164.857z"/>
	<linearGradient id="SVGID_18_" gradientUnits="userSpaceOnUse" x1="127.4065" y1="174.2051" x2="137.1493" y2="164.4622">
		<stop  offset="0" style="stop-color:#ED334D"/>
		<stop  offset="1" style="stop-color:#F9A233"/>
	</linearGradient>
	<polygon fill="url(#SVGID_18_)" points="135.047,168.265 136.098,168.265 136.791,163.118 135.74,163.118 	"/>
	<linearGradient id="SVGID_19_" gradientUnits="userSpaceOnUse" x1="120.4358" y1="167.2334" x2="130.1786" y2="157.4906">
		<stop  offset="0" style="stop-color:#ED334D"/>
		<stop  offset="1" style="stop-color:#F9A233"/>
	</linearGradient>
	<path fill="url(#SVGID_19_)" d="M124.576,165.467h-1.004h-1.415l-0.117,0.87h1.289c-0.321,0.544-0.92,0.922-1.557,0.922
		c-0.869,0-1.479-0.705-1.363-1.574c0.117-0.869,0.917-1.574,1.786-1.574c0.494,0,0.904,0.228,1.145,0.584l0.937-0.509
		c-0.379-0.65-1.085-1.074-1.947-1.074c-1.421,0-2.728,1.151-2.92,2.573c-0.191,1.421,0.806,2.573,2.227,2.573
		c1.196,0,2.311-0.815,2.749-1.921c0.082-0.208,0.141-0.428,0.171-0.652C124.567,165.611,124.573,165.539,124.576,165.467z"/>
	<linearGradient id="SVGID_20_" gradientUnits="userSpaceOnUse" x1="118.7786" y1="165.5762" x2="128.5212" y2="155.8335">
		<stop  offset="0" style="stop-color:#ED334D"/>
		<stop  offset="1" style="stop-color:#F9A233"/>
	</linearGradient>
	<path fill="url(#SVGID_20_)" d="M125.322,158.12l-3.853,0.391c-0.185,0.017-0.414,0.169-0.508,0.339l-1.594,2.865
		c-0.095,0.17-0.193,0.459-0.22,0.643l-0.485,3.372c-0.027,0.184,0.102,0.334,0.286,0.334h0.004l0.019-0.002
		c-0.001-0.143,0.007-0.286,0.027-0.433c0.218-1.618,1.713-2.935,3.333-2.935c0.976,0,1.838,0.479,2.306,1.281l0.051,0.087
		l0.016,0.028c0.016,0.019,0.04,0.03,0.066,0.03c0.038,0,0.07-0.024,0.082-0.059l0.004-0.034l0.756-5.605
		C125.636,158.239,125.507,158.103,125.322,158.12z M124.207,159.247l-0.458,2.064c-0.026,0.184-0.2,0.351-0.385,0.371l-3.055,0.359
		c-0.185,0.021-0.264-0.104-0.175-0.275l1.201-2.313c0.089-0.172,0.313-0.324,0.499-0.339l2.085-0.176
		C124.104,158.925,124.234,159.063,124.207,159.247z"/>
</g>
</svg>
