<?xml version="1.0" encoding="utf-8"?>
<!-- Generator: Adobe Illustrator 17.0.0, SVG Export Plug-In . SVG Version: 6.00 Build 0)  -->
<!DOCTYPE svg PUBLIC "-//W3C//DTD SVG 1.1//EN" "http://www.w3.org/Graphics/SVG/1.1/DTD/svg11.dtd">
<svg version="1.1" id="Layer_1" xmlns="http://www.w3.org/2000/svg" xmlns:xlink="http://www.w3.org/1999/xlink" x="0px" y="0px"
	 width="400px" height="400px" viewBox="0 0 400 400" enable-background="new 0 0 400 400" xml:space="preserve">
<g>
	<circle fill="none" stroke="#E93950" stroke-width="5" stroke-miterlimit="10" cx="243.521" cy="156.479" r="57.078"/>
	<path fill="none" stroke="#E93950" stroke-width="5" stroke-miterlimit="10" d="M229.176,199.932
		c-6.582-2.167-12.77-5.868-18.005-11.103c-0.806-0.806-1.575-1.634-2.308-2.483"/>
	<path fill="none" stroke="#E93950" stroke-width="5" stroke-miterlimit="10" d="M266.046,116.644
		c3.518,1.992,6.828,4.486,9.826,7.484c1.649,1.649,3.145,3.391,4.489,5.212"/>
	<path fill="none" stroke="#E93950" stroke-width="5" stroke-miterlimit="10" d="M255.638,112.354
		c2.043,0.559,4.055,1.262,6.019,2.109"/>
	<path fill="none" stroke="#E93950" stroke-width="5" stroke-miterlimit="10" d="M244.156,110.733
		c2.184,0.03,4.365,0.215,6.528,0.556"/>
	<circle fill="none" stroke="#E93950" stroke-width="5" stroke-miterlimit="10" cx="243.521" cy="156.479" r="71.479"/>
	<line fill="none" stroke="#F79E35" stroke-width="5" stroke-miterlimit="10" x1="95.493" y1="278.8" x2="108.347" y2="291.653"/>
	<line fill="none" stroke="#F79E35" stroke-width="5" stroke-miterlimit="10" x1="140.51" y1="268.307" x2="158.858" y2="249.958"/>
	
		<line fill="none" stroke="#F79E35" stroke-width="5" stroke-miterlimit="10" x1="161.979" y1="246.838" x2="167.008" y2="241.809"/>
	
		<line fill="none" stroke="#F79E35" stroke-width="5" stroke-miterlimit="10" x1="170.128" y1="238.688" x2="175.158" y2="233.659"/>
	
		<line fill="none" stroke="#E93950" stroke-width="5" stroke-miterlimit="10" x1="185.246" y1="198.012" x2="167.966" y2="215.291"/>
	
		<line fill="none" stroke="#E93950" stroke-width="5" stroke-miterlimit="10" x1="201.988" y1="214.754" x2="184.709" y2="232.034"/>
	<polyline fill="none" stroke="#E93950" stroke-width="5" stroke-miterlimit="10" points="98.619,122.992 85,122.992 85,192.3 
		144.361,192.3 	"/>
	<polyline fill="none" stroke="#E93950" stroke-width="5" stroke-miterlimit="10" points="140.688,122.992 154.307,122.992 
		154.307,136.295 	"/>
	
		<rect x="107.553" y="122.992" fill="none" stroke="#F79E35" stroke-width="5" stroke-miterlimit="10" width="24.201" height="24.201"/>
	
		<line fill="none" stroke="#F79E35" stroke-width="5" stroke-miterlimit="10" x1="203.968" y1="135.975" x2="203.968" y2="176.982"/>
	
		<line fill="none" stroke="#F79E35" stroke-width="5" stroke-miterlimit="10" x1="214.275" y1="135.975" x2="214.275" y2="176.982"/>
	
		<line fill="none" stroke="#F79E35" stroke-width="5" stroke-miterlimit="10" x1="224.582" y1="135.975" x2="224.582" y2="176.982"/>
	
		<line fill="none" stroke="#F79E35" stroke-width="5" stroke-miterlimit="10" x1="234.889" y1="135.975" x2="234.889" y2="176.982"/>
	
		<line fill="none" stroke="#F79E35" stroke-width="5" stroke-miterlimit="10" x1="245.196" y1="135.975" x2="245.196" y2="176.982"/>
	
		<line fill="none" stroke="#F79E35" stroke-width="5" stroke-miterlimit="10" x1="262.461" y1="135.975" x2="262.461" y2="176.982"/>
	
		<line fill="none" stroke="#F79E35" stroke-width="5" stroke-miterlimit="10" x1="272.768" y1="135.975" x2="272.768" y2="176.982"/>
	
		<line fill="none" stroke="#F79E35" stroke-width="5" stroke-miterlimit="10" x1="283.075" y1="135.975" x2="283.075" y2="176.982"/>
	<path fill="none" stroke="#E93950" stroke-width="5" stroke-miterlimit="10" d="M143.111,157.053
		c6.393,2.653,10.889,8.955,10.889,16.308c0,4.574-1.74,8.742-4.594,11.878"/>
	<path fill="none" stroke="#E93950" stroke-width="5" stroke-miterlimit="10" d="M185.246,198.012l-50.999-7.125l-0.667-0.091
		c-8.432-1.329-14.88-8.629-14.88-17.434c0-5.535,2.547-10.473,6.533-13.71l0.36-0.296l65.724-51.699"/>
	
		<line fill="none" stroke="#F79E35" stroke-width="5" stroke-miterlimit="10" x1="126.646" y1="173.273" x2="144.361" y2="173.273"/>
	<polygon fill="none" stroke="#E93950" stroke-width="5" stroke-miterlimit="10" points="110.706,315 189.191,236.516 
		163.484,210.809 85,289.294 85.745,305.686 94.314,314.255 	"/>
</g>
<circle fill="none" stroke="#666666" stroke-width="5" stroke-miterlimit="10" cx="200" cy="200" r="190"/>
</svg>
