<?xml version="1.0" encoding="utf-8"?>
<!-- Generator: Adobe Illustrator 17.0.0, SVG Export Plug-In . SVG Version: 6.00 Build 0)  -->
<!DOCTYPE svg PUBLIC "-//W3C//DTD SVG 1.1//EN" "http://www.w3.org/Graphics/SVG/1.1/DTD/svg11.dtd">
<svg version="1.1" id="Layer_1" xmlns="http://www.w3.org/2000/svg" xmlns:xlink="http://www.w3.org/1999/xlink" x="0px" y="0px"
	 width="400px" height="400px" viewBox="0 0 400 400" enable-background="new 0 0 400 400" xml:space="preserve">
<g>
	<path fill="none" stroke="#F79E35" stroke-width="5" stroke-miterlimit="10" d="M257.5,198.108
		c0-72.583-43.818-94.048-57.57-94.048c-13.752,0-57.43,21.465-57.43,94.048"/>
	<line fill="none" stroke="#F79E35" stroke-width="5" stroke-miterlimit="10" x1="200" y1="85" x2="200" y2="125.575"/>
	<line fill="none" stroke="#F79E35" stroke-width="5" stroke-miterlimit="10" x1="200" y1="138.715" x2="200" y2="146.946"/>
	<line fill="none" stroke="#F79E35" stroke-width="5" stroke-miterlimit="10" x1="200" y1="160.108" x2="200" y2="248.289"/>
	<path fill="none" stroke="#E93950" stroke-width="5" stroke-miterlimit="10" d="M315,199.554
		c0-63.149-65.389-95.494-115.529-95.494h1.058C150.389,104.06,85,136.405,85,199.554c0-11.484,12.872-20.793,28.75-20.793
		s28.75,9.31,28.75,20.793c0-11.484,12.872-20.793,28.75-20.793S200,188.07,200,199.554c0-11.484,12.872-20.793,28.75-20.793
		s28.75,9.31,28.75,20.793c0-11.484,12.872-20.793,28.75-20.793S315,188.07,315,199.554z"/>
	<path fill="none" stroke="#E93950" stroke-width="5" stroke-miterlimit="10" d="M209.963,281.054v6.668
		c0,15.065-12.212,27.278-27.278,27.278l0,0c-15.065,0-27.278-12.212-27.278-27.278v-6.668v-0.728v-1.714
		c0-2.552,2.069-4.621,4.621-4.621h8.23c2.552,0,4.621,2.069,4.621,4.621v1.714v0.728v6.019c0,4.738,3.841,8.578,8.578,8.578l0,0
		c4.738,0,8.578-3.841,8.578-8.578v-6.019v-3.501v-26.376c0-1.595,1.293-2.888,2.888-2.888h14.151c1.595,0,2.888,1.293,2.888,2.888
		v26.376L209.963,281.054L209.963,281.054z"/>
</g>
<circle fill="none" stroke="#666666" stroke-width="5" stroke-miterlimit="10" cx="200" cy="200" r="190"/>
</svg>
