<?xml version="1.0" encoding="utf-8"?>
<!-- Generator: Adobe Illustrator 17.0.0, SVG Export Plug-In . SVG Version: 6.00 Build 0)  -->
<!DOCTYPE svg PUBLIC "-//W3C//DTD SVG 1.1//EN" "http://www.w3.org/Graphics/SVG/1.1/DTD/svg11.dtd">
<svg version="1.1" id="Layer_1" xmlns="http://www.w3.org/2000/svg" xmlns:xlink="http://www.w3.org/1999/xlink" x="0px" y="0px"
	 width="400px" height="400px" viewBox="0 0 400 400" enable-background="new 0 0 400 400" xml:space="preserve">
<g>
	<path fill="none" stroke="#E93950" stroke-width="5" stroke-miterlimit="10" d="M100.926,178.93v131.476
		c0,2.537,2.057,4.594,4.594,4.594h188.961c2.537,0,4.594-2.057,4.594-4.594V178.93H100.926z"/>
	<path fill="none" stroke="#F79E35" stroke-width="5" stroke-miterlimit="10" d="M228.252,156.344c0,4.567-3.702,8.269-8.269,8.269
		h-39.967c-4.567,0-8.269-3.702-8.269-8.269l0,0c0-4.567,3.702-8.269,8.269-8.269h39.967
		C224.55,148.074,228.252,151.776,228.252,156.344L228.252,156.344z"/>
	<path fill="none" stroke="#F79E35" stroke-width="5" stroke-miterlimit="10" d="M239.852,278.402c0,1.015-0.823,1.838-1.838,1.838
		h-76.028c-1.015,0-1.838-0.823-1.838-1.838v-44.79c0-1.015,0.823-1.838,1.838-1.838h76.029c1.015,0,1.838,0.823,1.838,1.838
		L239.852,278.402L239.852,278.402z"/>
	<g>
		<g>
			
				<line fill="none" stroke="#F79E35" stroke-width="5" stroke-miterlimit="10" x1="188.401" y1="247.853" x2="227.449" y2="247.853"/>
			
				<line fill="none" stroke="#F79E35" stroke-width="5" stroke-miterlimit="10" x1="188.401" y1="264.161" x2="227.449" y2="264.161"/>
		</g>
		
			<line fill="none" stroke="#F79E35" stroke-width="5" stroke-miterlimit="10" x1="172.551" y1="247.853" x2="180.132" y2="247.853"/>
		
			<line fill="none" stroke="#F79E35" stroke-width="5" stroke-miterlimit="10" x1="172.551" y1="264.161" x2="180.132" y2="264.161"/>
	</g>
	<path fill="none" stroke="#F79E35" stroke-width="5" stroke-miterlimit="10" d="M163.613,85v11.944
		c0,2.537,2.057,4.594,4.594,4.594h30.09h41.766h31.468c2.537,0,4.594,2.057,4.594,4.594v26.859"/>
	<path fill="none" stroke="#E93950" stroke-width="5" stroke-miterlimit="10" d="M123.875,132.991V89.594
		c0-2.537,2.057-4.594,4.594-4.594h133.223c2.537,0,4.594,2.057,4.594,4.594v43.397"/>
	<path fill="none" stroke="#E93950" stroke-width="5" stroke-miterlimit="10" d="M315,174.336c0,2.537-2.057,4.594-4.594,4.594
		H89.594c-2.537,0-4.594-2.057-4.594-4.594v-36.751c0-2.537,2.057-4.594,4.594-4.594h220.812c2.537,0,4.594,2.057,4.594,4.594
		V174.336z"/>
</g>
<circle fill="none" stroke="#666666" stroke-width="5" stroke-miterlimit="10" cx="200" cy="200" r="190"/>
</svg>
